G04 Layer: BottomSolderMaskLayer*
G04 EasyEDA v6.4.7, 2021-02-04T23:20:08+01:00*
G04 79144050c9e943b49f0c46fcba6317a4,10*
G04 Gerber Generator version 0.2*
G04 Scale: 100 percent, Rotated: No, Reflected: No *
G04 Dimensions in millimeters *
G04 leading zeros omitted , absolute positions ,3 integer and 3 decimal *
%FSLAX33Y33*%
%MOMM*%
G90*
D02*

%ADD24R,1.625600X1.910080*%
%ADD25C,2.003196*%
%ADD26C,1.778000*%
%ADD27C,1.803197*%
%ADD29C,1.727200*%
%ADD30C,1.403198*%

%LPD*%
G54D24*
G01X123317Y24594D03*
G01X125857Y24594D03*
G01X128397Y24594D03*
G01X130937Y24594D03*
G01X133477Y24594D03*
G01X136017Y24594D03*
G01X138557Y24594D03*
G01X141097Y24594D03*
G01X143637Y24594D03*
G01X146177Y24594D03*
G36*
G01X100660Y23639D02*
G01X100660Y25549D01*
G01X102285Y25549D01*
G01X102285Y23639D01*
G01X100660Y23639D01*
G37*
G36*
G01X103200Y23639D02*
G01X103200Y25549D01*
G01X104825Y25549D01*
G01X104825Y23639D01*
G01X103200Y23639D01*
G37*
G36*
G01X105740Y23639D02*
G01X105740Y25549D01*
G01X107365Y25549D01*
G01X107365Y23639D01*
G01X105740Y23639D01*
G37*
G36*
G01X108280Y23639D02*
G01X108280Y25549D01*
G01X109905Y25549D01*
G01X109905Y23639D01*
G01X108280Y23639D01*
G37*
G36*
G01X110820Y23639D02*
G01X110820Y25549D01*
G01X112445Y25549D01*
G01X112445Y23639D01*
G01X110820Y23639D01*
G37*
G01X114173Y24594D03*
G01X116713Y24594D03*
G01X119253Y24594D03*
G36*
G01X113360Y71899D02*
G01X113360Y73809D01*
G01X114985Y73809D01*
G01X114985Y71899D01*
G01X113360Y71899D01*
G37*
G36*
G01X110820Y71899D02*
G01X110820Y73809D01*
G01X112445Y73809D01*
G01X112445Y71899D01*
G01X110820Y71899D01*
G37*
G36*
G01X108280Y71899D02*
G01X108280Y73809D01*
G01X109905Y73809D01*
G01X109905Y71899D01*
G01X108280Y71899D01*
G37*
G36*
G01X105740Y71899D02*
G01X105740Y73809D01*
G01X107365Y73809D01*
G01X107365Y71899D01*
G01X105740Y71899D01*
G37*
G36*
G01X103200Y71899D02*
G01X103200Y73809D01*
G01X104825Y73809D01*
G01X104825Y71899D01*
G01X103200Y71899D01*
G37*
G36*
G01X100660Y71899D02*
G01X100660Y73809D01*
G01X102285Y73809D01*
G01X102285Y71899D01*
G01X100660Y71899D01*
G37*
G36*
G01X136220Y71899D02*
G01X136220Y73809D01*
G01X137845Y73809D01*
G01X137845Y71899D01*
G01X136220Y71899D01*
G37*
G36*
G01X133680Y71899D02*
G01X133680Y73809D01*
G01X135305Y73809D01*
G01X135305Y71899D01*
G01X133680Y71899D01*
G37*
G36*
G01X131140Y71899D02*
G01X131140Y73809D01*
G01X132765Y73809D01*
G01X132765Y71899D01*
G01X131140Y71899D01*
G37*
G36*
G01X128600Y71899D02*
G01X128600Y73809D01*
G01X130225Y73809D01*
G01X130225Y71899D01*
G01X128600Y71899D01*
G37*
G36*
G01X126060Y71899D02*
G01X126060Y73809D01*
G01X127685Y73809D01*
G01X127685Y71899D01*
G01X126060Y71899D01*
G37*
G36*
G01X123520Y71899D02*
G01X123520Y73809D01*
G01X125145Y73809D01*
G01X125145Y71899D01*
G01X123520Y71899D01*
G37*
G36*
G01X120980Y71899D02*
G01X120980Y73809D01*
G01X122605Y73809D01*
G01X122605Y71899D01*
G01X120980Y71899D01*
G37*
G36*
G01X118440Y71899D02*
G01X118440Y73809D01*
G01X120065Y73809D01*
G01X120065Y71899D01*
G01X118440Y71899D01*
G37*
G54D25*
G01X36118Y85900D03*
G01X36118Y81399D03*
G01X42621Y85900D03*
G01X42621Y81399D03*
G01X23418Y85773D03*
G01X23418Y81272D03*
G01X29921Y85773D03*
G01X29921Y81272D03*
G01X10718Y85773D03*
G01X10718Y81272D03*
G01X17221Y85773D03*
G01X17221Y81272D03*
G54D26*
G01X4699Y39072D03*
G01X19685Y39072D03*
G01X34671Y39072D03*
G01X49657Y39072D03*
G01X4699Y24086D03*
G01X19685Y24086D03*
G01X34671Y24086D03*
G01X49657Y24086D03*
G01X4699Y69044D03*
G01X19685Y69044D03*
G01X34671Y69044D03*
G01X49657Y69044D03*
G01X4699Y54058D03*
G01X19685Y54058D03*
G01X34671Y54058D03*
G01X49657Y54058D03*
G54D27*
G01X68707Y37294D03*
G01X68707Y34754D03*
G01X68707Y32214D03*
G01X68707Y29674D03*
G01X68707Y27134D03*
G01X68707Y24594D03*
G01X68707Y22054D03*
G01X68707Y19514D03*
G01X76327Y19514D03*
G01X76327Y22054D03*
G01X76327Y24594D03*
G01X76327Y27134D03*
G01X76327Y29674D03*
G01X76327Y32214D03*
G01X76327Y34754D03*
G01X76327Y37294D03*
G01X68580Y64599D03*
G01X68580Y62059D03*
G01X68580Y59519D03*
G01X68580Y56979D03*
G01X68580Y54439D03*
G01X68580Y51899D03*
G01X68580Y49359D03*
G01X68580Y46819D03*
G01X76200Y46819D03*
G01X76200Y49359D03*
G01X76200Y51899D03*
G01X76200Y54439D03*
G01X76200Y56979D03*
G01X76200Y59519D03*
G01X76200Y62059D03*
G01X76200Y64599D03*
G54D26*
G01X52451Y17482D03*
G01X37465Y17482D03*
G01X22479Y17609D03*
G01X7366Y17482D03*
G36*
G01X6365Y12418D02*
G01X6365Y14419D01*
G01X8366Y14419D01*
G01X8366Y12418D01*
G01X6365Y12418D01*
G37*
G54D25*
G01X7366Y10878D03*
G01X7366Y8338D03*
G36*
G01X21478Y12418D02*
G01X21478Y14419D01*
G01X23479Y14419D01*
G01X23479Y12418D01*
G01X21478Y12418D01*
G37*
G01X22479Y10878D03*
G01X22479Y8338D03*
G36*
G01X36464Y12418D02*
G01X36464Y14419D01*
G01X38465Y14419D01*
G01X38465Y12418D01*
G01X36464Y12418D01*
G37*
G01X37465Y10878D03*
G01X37465Y8338D03*
G36*
G01X51450Y12418D02*
G01X51450Y14419D01*
G01X53451Y14419D01*
G01X53451Y12418D01*
G01X51450Y12418D01*
G37*
G01X52451Y10878D03*
G01X52451Y8338D03*
G54D29*
G01X91440Y6941D03*
G01X83820Y6941D03*
G01X91440Y9481D03*
G01X83820Y9481D03*
G01X91440Y11894D03*
G01X83820Y11894D03*
G01X91440Y14307D03*
G01X83820Y14307D03*
G54D30*
G01X58420Y39834D03*
G01X66040Y39834D03*
G01X58420Y37294D03*
G01X66040Y37294D03*
G01X58420Y34754D03*
G01X66040Y34754D03*
G01X58420Y32214D03*
G01X66040Y32214D03*
G01X58420Y29674D03*
G01X66040Y29674D03*
G01X58420Y27134D03*
G01X66040Y27134D03*
G01X58420Y24594D03*
G01X66040Y24594D03*
G01X58420Y22054D03*
G01X66040Y22054D03*
G01X58420Y67012D03*
G01X66040Y67012D03*
G01X58420Y64599D03*
G01X66040Y64599D03*
G01X58420Y62059D03*
G01X66040Y62059D03*
G01X58420Y59519D03*
G01X66040Y59519D03*
G01X58420Y56979D03*
G01X66040Y56979D03*
G01X58420Y54439D03*
G01X66040Y54439D03*
G01X58420Y51899D03*
G01X66040Y51899D03*
G01X58420Y49359D03*
G01X66040Y49359D03*
M00*
M02*
