;Layer: Drill PTH
;EasyEDA v6.4.7, 2021-02-04T23:20:08+01:00
;79144050c9e943b49f0c46fcba6317a4,10
;Gerber Generator version 0.2
M48
METRIC,LZ,000.000
;Holesize 1 = 0.305 METRIC
T01C0.305
;Holesize 2 = 0.800 METRIC
T02C0.800
;Holesize 3 = 0.849 METRIC
T03C0.849
;Holesize 4 = 0.889 METRIC
T04C0.889
;Holesize 5 = 0.915 METRIC
T05C0.915
;Holesize 6 = 1.000 METRIC
T06C1.000
;Holesize 7 = 1.101 METRIC
T07C1.101
%
G05
G90
T01
X+109220Y+009481
X+115824Y+009481
X+109220Y+014307
X+109220Y+011894
X+120777Y+011894
X+125730Y+014307
X+062230Y+018752
X+109220Y+016847
X+130683Y+016847
X+085217Y+033357
X+074676Y+041993
X+073406Y+029674
X+074676Y+029674
X+096647Y+067012
X+095758Y+066123
X+094869Y+065234
T02
X+058420Y+039834
X+066040Y+039834
X+058420Y+037294
X+066040Y+037294
X+058420Y+034754
X+066040Y+034754
X+058420Y+032214
X+066040Y+032214
X+058420Y+029674
X+066040Y+029674
X+058420Y+027134
X+066040Y+027134
X+058420Y+024594
X+066040Y+024594
X+058420Y+022054
X+066040Y+022054
X+058420Y+067012
X+066040Y+067012
X+058420Y+064599
X+066040Y+064599
X+058420Y+062059
X+066040Y+062059
X+058420Y+059519
X+066040Y+059519
X+058420Y+056979
X+066040Y+056979
X+058420Y+054439
X+066040Y+054439
X+058420Y+051899
X+066040Y+051899
X+058420Y+049359
X+066040Y+049359
T03
X+123317Y+024594
X+125857Y+024594
X+128397Y+024594
X+130937Y+024594
X+133477Y+024594
X+136017Y+024594
X+138557Y+024594
X+141097Y+024594
X+143637Y+024594
X+146177Y+024594
X+101473Y+024594
X+104013Y+024594
X+106553Y+024594
X+109093Y+024594
X+111633Y+024594
X+114173Y+024594
X+116713Y+024594
X+119253Y+024594
X+114173Y+072854
X+111633Y+072854
X+109093Y+072854
X+106553Y+072854
X+104013Y+072854
X+101473Y+072854
X+137033Y+072854
X+134493Y+072854
X+131953Y+072854
X+129413Y+072854
X+126873Y+072854
X+124333Y+072854
X+121793Y+072854
X+119253Y+072854
T04
X+004699Y+039072
X+019685Y+039072
X+034671Y+039072
X+049657Y+039072
X+004699Y+024086
X+019685Y+024086
X+034671Y+024086
X+049657Y+024086
X+004699Y+069044
X+019685Y+069044
X+034671Y+069044
X+049657Y+069044
X+004699Y+054058
X+019685Y+054058
X+034671Y+054058
X+049657Y+054058
X+052451Y+017482
X+037465Y+017482
X+022479Y+017609
X+007366Y+017482
T05
X+091440Y+006941
X+083820Y+006941
X+091440Y+009481
X+083820Y+009481
X+091440Y+011894
X+083820Y+011894
X+091440Y+014307
X+083820Y+014307
T06
X+068707Y+037294
X+068707Y+034754
X+068707Y+032214
X+068707Y+029674
X+068707Y+027134
X+068707Y+024594
X+068707Y+022054
X+068707Y+019514
X+076327Y+019514
X+076327Y+022054
X+076327Y+024594
X+076327Y+027134
X+076327Y+029674
X+076327Y+032214
X+076327Y+034754
X+076327Y+037294
X+068580Y+064599
X+068580Y+062059
X+068580Y+059519
X+068580Y+056979
X+068580Y+054439
X+068580Y+051899
X+068580Y+049359
X+068580Y+046819
X+076200Y+046819
X+076200Y+049359
X+076200Y+051899
X+076200Y+054439
X+076200Y+056979
X+076200Y+059519
X+076200Y+062059
X+076200Y+064599
X+007366Y+013418
X+007366Y+010878
X+007366Y+008338
X+022479Y+013418
X+022479Y+010878
X+022479Y+008338
X+037465Y+013418
X+037465Y+010878
X+037465Y+008338
X+052451Y+013418
X+052451Y+010878
X+052451Y+008338
T07
X+036118Y+085900
X+036118Y+081399
X+042621Y+085900
X+042621Y+081399
X+023418Y+085773
X+023418Y+081272
X+029921Y+085773
X+029921Y+081272
X+010718Y+085773
X+010718Y+081272
X+017221Y+085773
X+017221Y+081272
M30
