G04 Layer: TopLayer*
G04 EasyEDA v6.4.7, 2021-02-04T23:20:08+01:00*
G04 79144050c9e943b49f0c46fcba6317a4,10*
G04 Gerber Generator version 0.2*
G04 Scale: 100 percent, Rotated: No, Reflected: No *
G04 Dimensions in millimeters *
G04 leading zeros omitted , absolute positions ,3 integer and 3 decimal *
%FSLAX33Y33*%
%MOMM*%
G90*
D02*

%ADD10C,0.254000*%
%ADD11C,0.609600*%
%ADD12R,1.422400X1.706880*%
%ADD13C,1.799996*%
%ADD14C,1.574800*%
%ADD15C,1.599997*%
%ADD17C,1.524000*%
%ADD18C,1.199998*%

%LPD*%
G54D10*
G01X42621Y85900D02*
G01X111287Y85900D01*
G01X124333Y72854D01*
G01X62230Y18752D02*
G01X71755Y9227D01*
G01X52451Y8338D02*
G01X56890Y3893D01*
G01X37465Y8338D02*
G01X41904Y3893D01*
G01X22479Y8338D02*
G01X26918Y3893D01*
G01X7366Y8338D02*
G01X11811Y3893D01*
G01X66421Y3893D01*
G01X79375Y16847D01*
G01X109220Y16847D01*
G01X58420Y29674D02*
G01X10287Y29674D01*
G01X4699Y24086D01*
G01X58420Y27134D02*
G01X57658Y27896D01*
G01X23241Y27896D01*
G01X19685Y24340D01*
G01X19685Y24086D01*
G01X58420Y24594D02*
G01X56642Y26372D01*
G01X36957Y26372D01*
G01X34671Y24086D01*
G01X58420Y39834D02*
G01X53975Y44279D01*
G01X6858Y44279D01*
G01X4699Y42120D01*
G01X4699Y39072D01*
G01X58420Y37294D02*
G01X52832Y42882D01*
G01X22352Y42882D01*
G01X19685Y39072D01*
G01X58420Y34754D02*
G01X51689Y41485D01*
G01X37084Y41485D01*
G01X34671Y39072D01*
G01X58420Y62059D02*
G01X51562Y68917D01*
G01X51562Y70441D01*
G01X50800Y71203D01*
G01X36830Y71203D01*
G01X34671Y69044D01*
G01X10718Y81272D02*
G01X14818Y77172D01*
G01X82931Y77172D01*
G01X94869Y65234D01*
G01X23418Y81272D02*
G01X26248Y78442D01*
G01X83439Y78442D01*
G01X95758Y66123D01*
G01X36118Y81399D02*
G01X37932Y79585D01*
G01X84074Y79585D01*
G01X96647Y67012D01*
G01X29921Y85773D02*
G01X35991Y85773D01*
G01X36118Y85900D01*
G01X17221Y85773D02*
G01X23418Y85773D01*
G01X23418Y85773D01*
G01X66040Y22054D02*
G01X68707Y22054D01*
G01X66040Y24594D02*
G01X68707Y24594D01*
G01X66040Y27134D02*
G01X68707Y27134D01*
G01X66040Y29674D02*
G01X68707Y29674D01*
G01X66040Y37294D02*
G01X68707Y37294D01*
G01X66040Y34754D02*
G01X68707Y34754D01*
G01X66040Y32214D02*
G01X68707Y32214D01*
G01X66040Y49359D02*
G01X68580Y49359D01*
G01X66040Y64599D02*
G01X68580Y64599D01*
G01X66040Y62059D02*
G01X68580Y62059D01*
G01X66040Y59519D02*
G01X68580Y59519D01*
G01X66040Y56979D02*
G01X68580Y56979D01*
G01X66040Y54439D02*
G01X68580Y54439D01*
G01X66040Y51899D02*
G01X68580Y51899D01*
G01X66040Y67012D02*
G01X80772Y67012D01*
G01X82169Y65615D01*
G01X82169Y63456D01*
G01X80772Y62059D01*
G01X76200Y62059D01*
G01X66040Y39834D02*
G01X80645Y39834D01*
G01X82042Y38437D01*
G01X82042Y36151D01*
G01X80645Y34754D01*
G01X76327Y34754D01*
G01X58420Y59519D02*
G01X49657Y68282D01*
G01X49657Y69044D01*
G01X58420Y64599D02*
G01X50292Y72727D01*
G01X22733Y72727D01*
G01X19685Y69679D01*
G01X19685Y69044D01*
G01X58420Y67012D02*
G01X51054Y74378D01*
G01X11303Y74378D01*
G01X5969Y69044D01*
G01X4699Y69044D01*
G01X58420Y56979D02*
G01X54356Y61043D01*
G01X11176Y61043D01*
G01X4699Y54566D01*
G01X4699Y54058D01*
G01X58420Y54439D02*
G01X53340Y59519D01*
G01X21336Y59519D01*
G01X19685Y57868D01*
G01X19685Y54058D01*
G01X58420Y51899D02*
G01X58420Y52153D01*
G01X52070Y58503D01*
G01X39116Y58503D01*
G01X34671Y54058D01*
G01X58420Y49359D02*
G01X53721Y54058D01*
G01X49657Y54058D01*
G01X58420Y32214D02*
G01X51562Y39072D01*
G01X49657Y39072D01*
G01X58420Y22054D02*
G01X56388Y24086D01*
G01X49657Y24086D01*
G01X7366Y17482D02*
G01X7366Y13418D01*
G01X22479Y17609D02*
G01X22479Y13418D01*
G01X37465Y17482D02*
G01X37465Y13418D01*
G01X52451Y17482D02*
G01X52451Y13418D01*
G01X91440Y6941D02*
G01X110743Y6941D01*
G01X128397Y24594D01*
G01X91440Y9481D02*
G01X109220Y9481D01*
G01X115824Y9481D02*
G01X130937Y24594D01*
G01X130937Y24594D01*
G01X91440Y11894D02*
G01X109220Y11894D01*
G01X91440Y14307D02*
G01X109220Y14307D01*
G01X120777Y11894D02*
G01X133477Y24594D01*
G01X133477Y24594D01*
G01X125730Y14307D02*
G01X136017Y24594D01*
G01X136017Y24594D01*
G01X130683Y16847D02*
G01X138430Y24594D01*
G01X138557Y24594D01*
G01X76327Y32214D02*
G01X112522Y32214D01*
G01X119253Y25483D01*
G01X119253Y24594D01*
G01X76327Y27134D02*
G01X80010Y30817D01*
G01X111379Y30817D01*
G01X116713Y25483D01*
G01X116713Y24594D01*
G01X76327Y24594D02*
G01X80899Y29166D01*
G01X110236Y29166D01*
G01X114173Y25229D01*
G01X114173Y24594D01*
G01X76200Y59519D02*
G01X85217Y50502D01*
G01X85217Y33357D01*
G01X76200Y54439D02*
G01X77851Y52788D01*
G01X77851Y45168D01*
G01X74676Y41993D01*
G01X74676Y29674D02*
G01X74676Y28023D01*
G01X75565Y27134D01*
G01X76327Y27134D01*
G01X73406Y29674D02*
G01X73406Y27515D01*
G01X76327Y24594D01*
G54D12*
G01X123317Y24594D03*
G01X125857Y24594D03*
G01X128397Y24594D03*
G01X130937Y24594D03*
G01X133477Y24594D03*
G01X136017Y24594D03*
G01X138557Y24594D03*
G01X141097Y24594D03*
G01X143637Y24594D03*
G01X146177Y24594D03*
G01X101473Y24594D03*
G01X104013Y24594D03*
G01X106553Y24594D03*
G01X109093Y24594D03*
G01X111633Y24594D03*
G01X114173Y24594D03*
G01X116713Y24594D03*
G01X119253Y24594D03*
G01X114173Y72854D03*
G01X111633Y72854D03*
G01X109093Y72854D03*
G01X106553Y72854D03*
G01X104013Y72854D03*
G01X101473Y72854D03*
G01X137033Y72854D03*
G01X134493Y72854D03*
G01X131953Y72854D03*
G01X129413Y72854D03*
G01X126873Y72854D03*
G01X124333Y72854D03*
G01X121793Y72854D03*
G01X119253Y72854D03*
G54D13*
G01X36118Y85900D03*
G01X36118Y81399D03*
G01X42621Y85900D03*
G01X42621Y81399D03*
G01X23418Y85773D03*
G01X23418Y81272D03*
G01X29921Y85773D03*
G01X29921Y81272D03*
G01X10718Y85773D03*
G01X10718Y81272D03*
G01X17221Y85773D03*
G01X17221Y81272D03*
G54D14*
G01X4699Y39072D03*
G01X19685Y39072D03*
G01X34671Y39072D03*
G01X49657Y39072D03*
G01X4699Y24086D03*
G01X19685Y24086D03*
G01X34671Y24086D03*
G01X49657Y24086D03*
G01X4699Y69044D03*
G01X19685Y69044D03*
G01X34671Y69044D03*
G01X49657Y69044D03*
G01X4699Y54058D03*
G01X19685Y54058D03*
G01X34671Y54058D03*
G01X49657Y54058D03*
G54D15*
G01X68707Y37294D03*
G01X68707Y34754D03*
G01X68707Y32214D03*
G01X68707Y29674D03*
G01X68707Y27134D03*
G01X68707Y24594D03*
G01X68707Y22054D03*
G01X68707Y19514D03*
G01X76327Y19514D03*
G01X76327Y22054D03*
G01X76327Y24594D03*
G01X76327Y27134D03*
G01X76327Y29674D03*
G01X76327Y32214D03*
G01X76327Y34754D03*
G01X76327Y37294D03*
G01X68580Y64599D03*
G01X68580Y62059D03*
G01X68580Y59519D03*
G01X68580Y56979D03*
G01X68580Y54439D03*
G01X68580Y51899D03*
G01X68580Y49359D03*
G01X68580Y46819D03*
G01X76200Y46819D03*
G01X76200Y49359D03*
G01X76200Y51899D03*
G01X76200Y54439D03*
G01X76200Y56979D03*
G01X76200Y59519D03*
G01X76200Y62059D03*
G01X76200Y64599D03*
G54D14*
G01X52451Y17482D03*
G01X37465Y17482D03*
G01X22479Y17609D03*
G01X7366Y17482D03*
G36*
G01X6466Y14318D02*
G01X8265Y14318D01*
G01X8265Y12518D01*
G01X6466Y12518D01*
G01X6466Y14318D01*
G37*
G54D13*
G01X7366Y10878D03*
G01X7366Y8338D03*
G36*
G01X21579Y14318D02*
G01X23378Y14318D01*
G01X23378Y12518D01*
G01X21579Y12518D01*
G01X21579Y14318D01*
G37*
G01X22479Y10878D03*
G01X22479Y8338D03*
G36*
G01X36565Y14318D02*
G01X38364Y14318D01*
G01X38364Y12518D01*
G01X36565Y12518D01*
G01X36565Y14318D01*
G37*
G01X37465Y10878D03*
G01X37465Y8338D03*
G36*
G01X51551Y14318D02*
G01X53350Y14318D01*
G01X53350Y12518D01*
G01X51551Y12518D01*
G01X51551Y14318D01*
G37*
G01X52451Y10878D03*
G01X52451Y8338D03*
G54D17*
G01X91440Y6941D03*
G01X83820Y6941D03*
G01X91440Y9481D03*
G01X83820Y9481D03*
G01X91440Y11894D03*
G01X83820Y11894D03*
G01X91440Y14307D03*
G01X83820Y14307D03*
G54D18*
G01X58420Y39834D03*
G01X66040Y39834D03*
G01X58420Y37294D03*
G01X66040Y37294D03*
G01X58420Y34754D03*
G01X66040Y34754D03*
G01X58420Y32214D03*
G01X66040Y32214D03*
G01X58420Y29674D03*
G01X66040Y29674D03*
G01X58420Y27134D03*
G01X66040Y27134D03*
G01X58420Y24594D03*
G01X66040Y24594D03*
G01X58420Y22054D03*
G01X66040Y22054D03*
G01X58420Y67012D03*
G01X66040Y67012D03*
G01X58420Y64599D03*
G01X66040Y64599D03*
G01X58420Y62059D03*
G01X66040Y62059D03*
G01X58420Y59519D03*
G01X66040Y59519D03*
G01X58420Y56979D03*
G01X66040Y56979D03*
G01X58420Y54439D03*
G01X66040Y54439D03*
G01X58420Y51899D03*
G01X66040Y51899D03*
G01X58420Y49359D03*
G01X66040Y49359D03*
G54D11*
G01X109220Y9481D03*
G01X115824Y9481D03*
G01X109220Y14307D03*
G01X109220Y11894D03*
G01X120777Y11894D03*
G01X125730Y14307D03*
G01X62230Y18752D03*
G01X109220Y16847D03*
G01X130683Y16847D03*
G01X85217Y33357D03*
G01X74676Y41993D03*
G01X73406Y29674D03*
G01X74676Y29674D03*
G01X96647Y67012D03*
G01X95758Y66123D03*
G01X94869Y65234D03*
M00*
M02*
