G04 Layer: TopSilkLayer*
G04 EasyEDA v6.4.7, 2021-02-04T23:20:08+01:00*
G04 79144050c9e943b49f0c46fcba6317a4,10*
G04 Gerber Generator version 0.2*
G04 Scale: 100 percent, Rotated: No, Reflected: No *
G04 Dimensions in millimeters *
G04 leading zeros omitted , absolute positions ,3 integer and 3 decimal *
%FSLAX33Y33*%
%MOMM*%
G90*
D02*

%ADD10C,0.254000*%
%ADD19C,0.304799*%
%ADD20C,0.203200*%
%ADD21C,0.202999*%
%ADD22C,0.253999*%
%ADD23C,0.152400*%

%LPD*%
G54D10*
G01X120523Y72219D02*
G01X119888Y71584D01*
G01X118618Y71584D01*
G01X117983Y72219D01*
G01X117983Y73489D01*
G01X118618Y74124D01*
G01X119888Y74124D01*
G01X120523Y73489D01*
G01X133223Y72219D02*
G01X133223Y73489D01*
G01X135763Y72219D02*
G01X135763Y73489D01*
G01X130683Y72219D02*
G01X130683Y73489D01*
G01X125603Y72219D02*
G01X125603Y73489D01*
G01X128143Y72219D02*
G01X128143Y73489D01*
G01X123063Y73489D02*
G01X123698Y74124D01*
G01X124968Y74124D01*
G01X125603Y73489D01*
G01X126238Y74124D01*
G01X127508Y74124D01*
G01X128143Y73489D01*
G01X128778Y74124D01*
G01X130048Y74124D01*
G01X130683Y73489D01*
G01X131318Y74124D01*
G01X132588Y74124D01*
G01X133223Y73489D01*
G01X133858Y74124D01*
G01X135128Y74124D01*
G01X135763Y73489D01*
G01X136398Y74124D01*
G01X137668Y74124D01*
G01X138303Y73489D01*
G01X138303Y72219D01*
G01X137668Y71584D01*
G01X136398Y71584D01*
G01X135763Y72219D01*
G01X135128Y71584D01*
G01X133858Y71584D01*
G01X133223Y72219D01*
G01X132588Y71584D01*
G01X131318Y71584D01*
G01X130683Y72219D01*
G01X130048Y71584D01*
G01X128778Y71584D01*
G01X128143Y72219D01*
G01X127508Y71584D01*
G01X126238Y71584D01*
G01X125603Y72219D01*
G01X124968Y71584D01*
G01X123698Y71584D01*
G01X123063Y72219D01*
G01X122428Y71584D01*
G01X121158Y71584D01*
G01X120523Y72219D01*
G01X120523Y73489D01*
G01X121158Y74124D01*
G01X122428Y74124D01*
G01X123063Y73489D01*
G01X123063Y72219D01*
G01X102743Y72219D02*
G01X102108Y71584D01*
G01X100838Y71584D01*
G01X100203Y72219D01*
G01X100203Y73489D01*
G01X100838Y74124D01*
G01X102108Y74124D01*
G01X102743Y73489D01*
G01X110363Y72219D02*
G01X110363Y73489D01*
G01X112903Y72219D02*
G01X112903Y73489D01*
G01X105283Y72219D02*
G01X104648Y71584D01*
G01X103378Y71584D01*
G01X102743Y72219D01*
G01X102743Y73489D01*
G01X103378Y74124D01*
G01X104648Y74124D01*
G01X105283Y73489D01*
G01X107823Y73489D02*
G01X108458Y74124D01*
G01X109728Y74124D01*
G01X110363Y73489D01*
G01X110998Y74124D01*
G01X112268Y74124D01*
G01X112903Y73489D01*
G01X113538Y74124D01*
G01X114808Y74124D01*
G01X115443Y73489D01*
G01X115443Y72219D01*
G01X114808Y71584D01*
G01X113538Y71584D01*
G01X112903Y72219D01*
G01X112268Y71584D01*
G01X110998Y71584D01*
G01X110363Y72219D01*
G01X109728Y71584D01*
G01X108458Y71584D01*
G01X107823Y72219D01*
G01X107188Y71584D01*
G01X105918Y71584D01*
G01X105283Y72219D01*
G01X105283Y73489D01*
G01X105918Y74124D01*
G01X107188Y74124D01*
G01X107823Y73489D01*
G01X107823Y72219D01*
G01X117983Y25229D02*
G01X118618Y25864D01*
G01X119888Y25864D01*
G01X120523Y25229D01*
G01X120523Y23959D01*
G01X119888Y23324D01*
G01X118618Y23324D01*
G01X117983Y23959D01*
G01X105283Y25229D02*
G01X105283Y23959D01*
G01X102743Y25229D02*
G01X102743Y23959D01*
G01X107823Y25229D02*
G01X107823Y23959D01*
G01X112903Y25229D02*
G01X112903Y23959D01*
G01X110363Y25229D02*
G01X110363Y23959D01*
G01X115443Y23959D02*
G01X114808Y23324D01*
G01X113538Y23324D01*
G01X112903Y23959D01*
G01X112268Y23324D01*
G01X110998Y23324D01*
G01X110363Y23959D01*
G01X109728Y23324D01*
G01X108458Y23324D01*
G01X107823Y23959D01*
G01X107188Y23324D01*
G01X105918Y23324D01*
G01X105283Y23959D01*
G01X104648Y23324D01*
G01X103378Y23324D01*
G01X102743Y23959D01*
G01X102108Y23324D01*
G01X100838Y23324D01*
G01X100203Y23959D01*
G01X100203Y25229D01*
G01X100838Y25864D01*
G01X102108Y25864D01*
G01X102743Y25229D01*
G01X103378Y25864D01*
G01X104648Y25864D01*
G01X105283Y25229D01*
G01X105918Y25864D01*
G01X107188Y25864D01*
G01X107823Y25229D01*
G01X108458Y25864D01*
G01X109728Y25864D01*
G01X110363Y25229D01*
G01X110998Y25864D01*
G01X112268Y25864D01*
G01X112903Y25229D01*
G01X113538Y25864D01*
G01X114808Y25864D01*
G01X115443Y25229D01*
G01X116078Y25864D01*
G01X117348Y25864D01*
G01X117983Y25229D01*
G01X117983Y23959D01*
G01X117348Y23324D01*
G01X116078Y23324D01*
G01X115443Y23959D01*
G01X115443Y25229D01*
G01X144907Y25229D02*
G01X145542Y25864D01*
G01X146812Y25864D01*
G01X147447Y25229D01*
G01X147447Y23959D01*
G01X146812Y23324D01*
G01X145542Y23324D01*
G01X144907Y23959D01*
G01X127127Y25229D02*
G01X127127Y23959D01*
G01X124587Y25229D02*
G01X124587Y23959D01*
G01X129667Y25229D02*
G01X129667Y23959D01*
G01X134747Y25229D02*
G01X134747Y23959D01*
G01X132207Y25229D02*
G01X132207Y23959D01*
G01X137287Y25229D02*
G01X137287Y23959D01*
G01X139827Y25229D02*
G01X139827Y23959D01*
G01X142367Y23959D02*
G01X141732Y23324D01*
G01X140462Y23324D01*
G01X139827Y23959D01*
G01X139192Y23324D01*
G01X137922Y23324D01*
G01X137287Y23959D01*
G01X136652Y23324D01*
G01X135382Y23324D01*
G01X134747Y23959D01*
G01X134112Y23324D01*
G01X132842Y23324D01*
G01X132207Y23959D01*
G01X131572Y23324D01*
G01X130302Y23324D01*
G01X129667Y23959D01*
G01X129032Y23324D01*
G01X127762Y23324D01*
G01X127127Y23959D01*
G01X126492Y23324D01*
G01X125222Y23324D01*
G01X124587Y23959D01*
G01X123952Y23324D01*
G01X122682Y23324D01*
G01X122047Y23959D01*
G01X122047Y25229D01*
G01X122682Y25864D01*
G01X123952Y25864D01*
G01X124587Y25229D01*
G01X125222Y25864D01*
G01X126492Y25864D01*
G01X127127Y25229D01*
G01X127762Y25864D01*
G01X129032Y25864D01*
G01X129667Y25229D01*
G01X130302Y25864D01*
G01X131572Y25864D01*
G01X132207Y25229D01*
G01X132842Y25864D01*
G01X134112Y25864D01*
G01X134747Y25229D01*
G01X135382Y25864D01*
G01X136652Y25864D01*
G01X137287Y25229D01*
G01X137922Y25864D01*
G01X139192Y25864D01*
G01X139827Y25229D01*
G01X140462Y25864D01*
G01X141732Y25864D01*
G01X142367Y25229D01*
G01X143002Y25864D01*
G01X144272Y25864D01*
G01X144907Y25229D01*
G01X144907Y23959D01*
G01X144272Y23324D01*
G01X143002Y23324D01*
G01X142367Y23959D01*
G01X142367Y25229D01*
G54D19*
G01X101346Y28785D02*
G01X101346Y28912D01*
G01X101854Y28531D02*
G01X100838Y28531D01*
G01X101346Y29039D01*
G01X101727Y28658D01*
G01X101219Y28658D01*
G01X104521Y29166D02*
G01X104013Y28658D01*
G01X103505Y29166D01*
G01X104267Y29166D01*
G01X103886Y28912D01*
G01X100457Y28404D02*
G01X102235Y28404D01*
G01X101346Y29293D01*
G01X100457Y28404D01*
G01X104902Y29293D02*
G01X103124Y29293D01*
G01X104013Y28404D01*
G01X104902Y29293D01*
G54D10*
G01X42672Y84770D02*
G01X42672Y82529D01*
G01X36919Y86697D02*
G01X41820Y86697D01*
G01X36068Y84770D02*
G01X36068Y82529D01*
G01X36919Y80601D02*
G01X41820Y80601D01*
G01X29972Y84643D02*
G01X29972Y82402D01*
G01X24219Y86570D02*
G01X29120Y86570D01*
G01X23368Y84643D02*
G01X23368Y82402D01*
G01X24219Y80474D02*
G01X29120Y80474D01*
G01X17272Y84643D02*
G01X17272Y82402D01*
G01X11519Y86570D02*
G01X16420Y86570D01*
G01X10668Y84643D02*
G01X10668Y82402D01*
G01X11519Y80474D02*
G01X16420Y80474D01*
G54D20*
G01X5969Y37802D02*
G01X3429Y37802D01*
G01X3429Y40342D01*
G01X5969Y40342D01*
G01X5969Y38437D01*
G54D21*
G01X5969Y37802D02*
G01X5969Y38437D01*
G54D20*
G01X20955Y37802D02*
G01X18415Y37802D01*
G01X18415Y40342D01*
G01X20955Y40342D01*
G01X20955Y38437D01*
G54D21*
G01X20955Y37802D02*
G01X20955Y38437D01*
G54D20*
G01X35941Y37802D02*
G01X33401Y37802D01*
G01X33401Y40342D01*
G01X35941Y40342D01*
G01X35941Y38437D01*
G54D21*
G01X35941Y37802D02*
G01X35941Y38437D01*
G54D20*
G01X50927Y37802D02*
G01X48387Y37802D01*
G01X48387Y40342D01*
G01X50927Y40342D01*
G01X50927Y38437D01*
G54D21*
G01X50927Y37802D02*
G01X50927Y38437D01*
G54D20*
G01X5969Y22816D02*
G01X3429Y22816D01*
G01X3429Y25356D01*
G01X5969Y25356D01*
G01X5969Y23451D01*
G54D21*
G01X5969Y22816D02*
G01X5969Y23451D01*
G54D20*
G01X20955Y22816D02*
G01X18415Y22816D01*
G01X18415Y25356D01*
G01X20955Y25356D01*
G01X20955Y23451D01*
G54D21*
G01X20955Y22816D02*
G01X20955Y23451D01*
G54D20*
G01X35941Y22816D02*
G01X33401Y22816D01*
G01X33401Y25356D01*
G01X35941Y25356D01*
G01X35941Y23451D01*
G54D21*
G01X35941Y22816D02*
G01X35941Y23451D01*
G54D20*
G01X50927Y22816D02*
G01X48387Y22816D01*
G01X48387Y25356D01*
G01X50927Y25356D01*
G01X50927Y23451D01*
G54D21*
G01X50927Y22816D02*
G01X50927Y23451D01*
G54D20*
G01X5969Y67774D02*
G01X3429Y67774D01*
G01X3429Y70314D01*
G01X5969Y70314D01*
G01X5969Y68409D01*
G54D21*
G01X5969Y67774D02*
G01X5969Y68409D01*
G54D20*
G01X20955Y67774D02*
G01X18415Y67774D01*
G01X18415Y70314D01*
G01X20955Y70314D01*
G01X20955Y68409D01*
G54D21*
G01X20955Y67774D02*
G01X20955Y68409D01*
G54D20*
G01X35941Y67774D02*
G01X33401Y67774D01*
G01X33401Y70314D01*
G01X35941Y70314D01*
G01X35941Y68409D01*
G54D21*
G01X35941Y67774D02*
G01X35941Y68409D01*
G54D20*
G01X50927Y67774D02*
G01X48387Y67774D01*
G01X48387Y70314D01*
G01X50927Y70314D01*
G01X50927Y68409D01*
G54D21*
G01X50927Y67774D02*
G01X50927Y68409D01*
G54D20*
G01X5969Y52788D02*
G01X3429Y52788D01*
G01X3429Y55328D01*
G01X5969Y55328D01*
G01X5969Y53423D01*
G54D21*
G01X5969Y52788D02*
G01X5969Y53423D01*
G54D20*
G01X20955Y52788D02*
G01X18415Y52788D01*
G01X18415Y55328D01*
G01X20955Y55328D01*
G01X20955Y53423D01*
G54D21*
G01X20955Y52788D02*
G01X20955Y53423D01*
G54D20*
G01X35941Y52788D02*
G01X33401Y52788D01*
G01X33401Y55328D01*
G01X35941Y55328D01*
G01X35941Y53423D01*
G54D21*
G01X35941Y52788D02*
G01X35941Y53423D01*
G54D20*
G01X50927Y52788D02*
G01X48387Y52788D01*
G01X48387Y55328D01*
G01X50927Y55328D01*
G01X50927Y53423D01*
G54D21*
G01X50927Y52788D02*
G01X50927Y53423D01*
G54D10*
G01X73515Y38404D02*
G01X75715Y38404D01*
G01X69317Y21224D02*
G01X69317Y20345D01*
G01X69317Y23764D02*
G01X69317Y22885D01*
G01X69317Y26304D02*
G01X69317Y25425D01*
G01X69317Y28844D02*
G01X69317Y27965D01*
G01X69317Y31384D02*
G01X69317Y30505D01*
G01X69317Y33924D02*
G01X69317Y33045D01*
G01X69317Y36464D02*
G01X69317Y35585D01*
G01X69317Y38404D02*
G01X69317Y38125D01*
G01X75715Y18685D02*
G01X75715Y18404D01*
G01X75715Y21225D02*
G01X75715Y20344D01*
G01X75715Y23765D02*
G01X75715Y22884D01*
G01X75715Y26305D02*
G01X75715Y25424D01*
G01X75715Y28845D02*
G01X75715Y27964D01*
G01X75715Y31385D02*
G01X75715Y30504D01*
G01X75715Y33925D02*
G01X75715Y33044D01*
G01X75715Y36465D02*
G01X75715Y35584D01*
G01X75715Y38404D02*
G01X75715Y38124D01*
G01X69317Y38404D02*
G01X71517Y38404D01*
G01X69317Y18404D02*
G01X75716Y18404D01*
G01X69317Y18684D02*
G01X69317Y18404D01*
G01X73388Y65709D02*
G01X75588Y65709D01*
G01X69190Y48529D02*
G01X69190Y47650D01*
G01X69190Y51069D02*
G01X69190Y50190D01*
G01X69190Y53609D02*
G01X69190Y52730D01*
G01X69190Y56149D02*
G01X69190Y55270D01*
G01X69190Y58689D02*
G01X69190Y57810D01*
G01X69190Y61229D02*
G01X69190Y60350D01*
G01X69190Y63769D02*
G01X69190Y62890D01*
G01X69190Y65709D02*
G01X69190Y65430D01*
G01X75588Y45990D02*
G01X75588Y45709D01*
G01X75588Y48530D02*
G01X75588Y47649D01*
G01X75588Y51070D02*
G01X75588Y50189D01*
G01X75588Y53610D02*
G01X75588Y52729D01*
G01X75588Y56150D02*
G01X75588Y55269D01*
G01X75588Y58690D02*
G01X75588Y57809D01*
G01X75588Y61230D02*
G01X75588Y60349D01*
G01X75588Y63770D02*
G01X75588Y62889D01*
G01X75588Y65709D02*
G01X75588Y65429D01*
G01X69190Y65709D02*
G01X71390Y65709D01*
G01X69190Y45709D02*
G01X75589Y45709D01*
G01X69190Y45989D02*
G01X69190Y45709D01*
G54D20*
G01X53721Y16212D02*
G01X51181Y16212D01*
G01X51181Y18752D01*
G01X53721Y18752D01*
G01X53721Y16847D01*
G54D21*
G01X53721Y16212D02*
G01X53721Y16847D01*
G54D20*
G01X38735Y16212D02*
G01X36195Y16212D01*
G01X36195Y18752D01*
G01X38735Y18752D01*
G01X38735Y16847D01*
G54D21*
G01X38735Y16212D02*
G01X38735Y16847D01*
G54D20*
G01X23749Y16339D02*
G01X21209Y16339D01*
G01X21209Y18879D01*
G01X23749Y18879D01*
G01X23749Y16974D01*
G54D21*
G01X23749Y16339D02*
G01X23749Y16974D01*
G54D20*
G01X8636Y16212D02*
G01X6096Y16212D01*
G01X6096Y18752D01*
G01X8636Y18752D01*
G01X8636Y16847D01*
G54D21*
G01X8636Y16212D02*
G01X8636Y16847D01*
G54D10*
G01X8865Y12858D02*
G01X8865Y8898D01*
G01X23978Y12858D02*
G01X23978Y8898D01*
G01X38964Y12858D02*
G01X38964Y8898D01*
G01X53950Y12858D02*
G01X53950Y8898D01*
G01X89329Y6091D02*
G01X85930Y6091D01*
G01X85930Y6091D02*
G01X85930Y7791D01*
G01X89329Y6091D02*
G01X89329Y7791D01*
G01X85930Y7791D01*
G01X89329Y8631D02*
G01X85930Y8631D01*
G01X85930Y8631D02*
G01X85930Y10331D01*
G01X89329Y8631D02*
G01X89329Y10331D01*
G01X85930Y10331D01*
G01X89329Y11044D02*
G01X85930Y11044D01*
G01X85930Y11044D02*
G01X85930Y12744D01*
G01X89329Y11044D02*
G01X89329Y12744D01*
G01X85930Y12744D01*
G01X89329Y13457D02*
G01X85930Y13457D01*
G01X85930Y13457D02*
G01X85930Y15157D01*
G01X89329Y13457D02*
G01X89329Y15157D01*
G01X85930Y15157D01*
G01X60629Y40734D02*
G01X63830Y40734D01*
G01X63830Y40734D02*
G01X63830Y38934D01*
G01X63830Y38934D02*
G01X60629Y38934D01*
G01X60629Y38934D02*
G01X60629Y40734D01*
G01X60629Y38194D02*
G01X63830Y38194D01*
G01X63830Y38194D02*
G01X63830Y36394D01*
G01X63830Y36394D02*
G01X60629Y36394D01*
G01X60629Y36394D02*
G01X60629Y38194D01*
G01X60629Y35654D02*
G01X63830Y35654D01*
G01X63830Y35654D02*
G01X63830Y33854D01*
G01X63830Y33854D02*
G01X60629Y33854D01*
G01X60629Y33854D02*
G01X60629Y35654D01*
G01X60629Y33114D02*
G01X63830Y33114D01*
G01X63830Y33114D02*
G01X63830Y31314D01*
G01X63830Y31314D02*
G01X60629Y31314D01*
G01X60629Y31314D02*
G01X60629Y33114D01*
G01X60629Y30574D02*
G01X63830Y30574D01*
G01X63830Y30574D02*
G01X63830Y28774D01*
G01X63830Y28774D02*
G01X60629Y28774D01*
G01X60629Y28774D02*
G01X60629Y30574D01*
G01X60629Y28034D02*
G01X63830Y28034D01*
G01X63830Y28034D02*
G01X63830Y26234D01*
G01X63830Y26234D02*
G01X60629Y26234D01*
G01X60629Y26234D02*
G01X60629Y28034D01*
G01X60629Y25494D02*
G01X63830Y25494D01*
G01X63830Y25494D02*
G01X63830Y23694D01*
G01X63830Y23694D02*
G01X60629Y23694D01*
G01X60629Y23694D02*
G01X60629Y25494D01*
G01X60629Y22954D02*
G01X63830Y22954D01*
G01X63830Y22954D02*
G01X63830Y21154D01*
G01X63830Y21154D02*
G01X60629Y21154D01*
G01X60629Y21154D02*
G01X60629Y22954D01*
G01X60629Y67912D02*
G01X63830Y67912D01*
G01X63830Y67912D02*
G01X63830Y66112D01*
G01X63830Y66112D02*
G01X60629Y66112D01*
G01X60629Y66112D02*
G01X60629Y67912D01*
G01X60629Y65499D02*
G01X63830Y65499D01*
G01X63830Y65499D02*
G01X63830Y63699D01*
G01X63830Y63699D02*
G01X60629Y63699D01*
G01X60629Y63699D02*
G01X60629Y65499D01*
G01X60629Y62959D02*
G01X63830Y62959D01*
G01X63830Y62959D02*
G01X63830Y61159D01*
G01X63830Y61159D02*
G01X60629Y61159D01*
G01X60629Y61159D02*
G01X60629Y62959D01*
G01X60629Y60419D02*
G01X63830Y60419D01*
G01X63830Y60419D02*
G01X63830Y58619D01*
G01X63830Y58619D02*
G01X60629Y58619D01*
G01X60629Y58619D02*
G01X60629Y60419D01*
G01X60629Y57879D02*
G01X63830Y57879D01*
G01X63830Y57879D02*
G01X63830Y56079D01*
G01X63830Y56079D02*
G01X60629Y56079D01*
G01X60629Y56079D02*
G01X60629Y57879D01*
G01X60629Y55339D02*
G01X63830Y55339D01*
G01X63830Y55339D02*
G01X63830Y53539D01*
G01X63830Y53539D02*
G01X60629Y53539D01*
G01X60629Y53539D02*
G01X60629Y55339D01*
G01X60629Y52799D02*
G01X63830Y52799D01*
G01X63830Y52799D02*
G01X63830Y50999D01*
G01X63830Y50999D02*
G01X60629Y50999D01*
G01X60629Y50999D02*
G01X60629Y52799D01*
G01X60629Y50259D02*
G01X63830Y50259D01*
G01X63830Y50259D02*
G01X63830Y48459D01*
G01X63830Y48459D02*
G01X60629Y48459D01*
G01X60629Y48459D02*
G01X60629Y50259D01*
G54D23*
G01X127251Y70185D02*
G01X127782Y70185D01*
G01X127835Y70662D01*
G01X127782Y70609D01*
G01X127622Y70555D01*
G01X127464Y70555D01*
G01X127304Y70609D01*
G01X127198Y70716D01*
G01X127144Y70876D01*
G01X127144Y70982D01*
G01X127198Y71140D01*
G01X127304Y71246D01*
G01X127464Y71300D01*
G01X127622Y71300D01*
G01X127782Y71246D01*
G01X127835Y71193D01*
G01X127889Y71089D01*
G01X126794Y70185D02*
G01X126370Y71300D01*
G01X125945Y70185D02*
G01X126370Y71300D01*
G01X114708Y70660D02*
G01X114985Y71389D01*
G01X114708Y70660D02*
G01X114432Y71389D01*
G01X114881Y71145D02*
G01X114536Y71145D01*
G01X113995Y70660D02*
G01X114099Y70695D01*
G01X114167Y70799D01*
G01X114203Y70972D01*
G01X114203Y71076D01*
G01X114167Y71249D01*
G01X114099Y71353D01*
G01X113995Y71389D01*
G01X113926Y71389D01*
G01X113822Y71353D01*
G01X113753Y71249D01*
G01X113718Y71076D01*
G01X113718Y70972D01*
G01X113753Y70799D01*
G01X113822Y70695D01*
G01X113926Y70660D01*
G01X113995Y70660D01*
G01X113908Y67507D02*
G01X114427Y68864D01*
G01X113908Y67507D02*
G01X113393Y68864D01*
G01X114233Y68412D02*
G01X113586Y68412D01*
G01X112966Y67507D02*
G01X112966Y68864D01*
G01X112966Y67507D02*
G01X112059Y68864D01*
G01X112059Y67507D02*
G01X112059Y68864D01*
G01X111117Y67507D02*
G01X111633Y68864D01*
G01X111117Y67507D02*
G01X110599Y68864D01*
G01X111439Y68412D02*
G01X110792Y68412D01*
G01X110172Y67507D02*
G01X110172Y68864D01*
G01X110172Y68864D02*
G01X109397Y68864D01*
G01X108582Y67507D02*
G01X108712Y67571D01*
G01X108841Y67701D01*
G01X108905Y67830D01*
G01X108971Y68023D01*
G01X108971Y68346D01*
G01X108905Y68541D01*
G01X108841Y68671D01*
G01X108712Y68800D01*
G01X108582Y68864D01*
G01X108323Y68864D01*
G01X108193Y68800D01*
G01X108064Y68671D01*
G01X108000Y68541D01*
G01X107934Y68346D01*
G01X107934Y68023D01*
G01X108000Y67830D01*
G01X108064Y67701D01*
G01X108193Y67571D01*
G01X108323Y67507D01*
G01X108582Y67507D01*
G01X106540Y67830D02*
G01X106603Y67701D01*
G01X106733Y67571D01*
G01X106862Y67507D01*
G01X107121Y67507D01*
G01X107251Y67571D01*
G01X107378Y67701D01*
G01X107444Y67830D01*
G01X107508Y68023D01*
G01X107508Y68346D01*
G01X107444Y68541D01*
G01X107378Y68671D01*
G01X107251Y68800D01*
G01X107121Y68864D01*
G01X106862Y68864D01*
G01X106733Y68800D01*
G01X106603Y68671D01*
G01X106540Y68541D01*
G01X106540Y68346D01*
G01X106862Y68346D02*
G01X106540Y68346D01*
G01X105117Y67507D02*
G01X105117Y68864D01*
G01X104691Y67507D02*
G01X104691Y68864D01*
G01X104691Y67507D02*
G01X103784Y68864D01*
G01X103784Y67507D02*
G01X103784Y68864D01*
G01X141221Y26796D02*
G01X142336Y26372D01*
G01X141221Y26796D02*
G01X142336Y27223D01*
G01X141965Y26532D02*
G01X141965Y27063D01*
G01X141221Y27574D02*
G01X142336Y27574D01*
G01X141221Y27574D02*
G01X141221Y28051D01*
G01X141274Y28209D01*
G01X141328Y28262D01*
G01X141434Y28315D01*
G01X141541Y28315D01*
G01X141645Y28262D01*
G01X141698Y28209D01*
G01X141752Y28051D01*
G01X141752Y27574D01*
G01X141752Y27944D02*
G01X142336Y28315D01*
G01X141221Y28666D02*
G01X142336Y28666D01*
G01X141221Y28666D02*
G01X141221Y29357D01*
G01X141752Y28666D02*
G01X141752Y29093D01*
G01X142336Y28666D02*
G01X142336Y29357D01*
G01X141221Y29707D02*
G01X142336Y29707D01*
G01X141221Y29707D02*
G01X141221Y30398D01*
G01X141752Y29707D02*
G01X141752Y30131D01*
G01X138922Y27043D02*
G01X138816Y26989D01*
G01X138709Y26883D01*
G01X138656Y26776D01*
G01X138656Y26563D01*
G01X138709Y26459D01*
G01X138816Y26352D01*
G01X138922Y26299D01*
G01X139080Y26245D01*
G01X139346Y26245D01*
G01X139506Y26299D01*
G01X139611Y26352D01*
G01X139717Y26459D01*
G01X139771Y26563D01*
G01X139771Y26776D01*
G01X139717Y26883D01*
G01X139611Y26989D01*
G01X139506Y27043D01*
G01X139346Y27043D01*
G01X139346Y26776D02*
G01X139346Y27043D01*
G01X138656Y27393D02*
G01X139771Y27393D01*
G01X138656Y27393D02*
G01X139771Y28135D01*
G01X138656Y28135D02*
G01X139771Y28135D01*
G01X138656Y28485D02*
G01X139771Y28485D01*
G01X138656Y28485D02*
G01X138656Y28859D01*
G01X138709Y29016D01*
G01X138816Y29123D01*
G01X138922Y29176D01*
G01X139080Y29230D01*
G01X139346Y29230D01*
G01X139506Y29176D01*
G01X139611Y29123D01*
G01X139717Y29016D01*
G01X139771Y28859D01*
G01X139771Y28485D01*
G01X103888Y31589D02*
G01X102773Y31589D01*
G01X103888Y31960D02*
G01X103888Y31216D01*
G01X103888Y30865D02*
G01X102773Y30124D01*
G01X103888Y30124D02*
G01X102773Y30865D01*
G01X101348Y31960D02*
G01X100233Y31960D01*
G01X101348Y31960D02*
G01X101348Y31483D01*
G01X101295Y31323D01*
G01X101241Y31269D01*
G01X101135Y31216D01*
G01X101028Y31216D01*
G01X100924Y31269D01*
G01X100871Y31323D01*
G01X100817Y31483D01*
G01X100817Y31960D01*
G01X100817Y31589D02*
G01X100233Y31216D01*
G01X101348Y30865D02*
G01X100233Y30124D01*
G01X101348Y30124D02*
G01X100233Y30865D01*
G01X102108Y52560D02*
G01X102108Y49773D01*
G01X102108Y52560D02*
G01X103301Y52560D01*
G01X103700Y52428D01*
G01X103835Y52296D01*
G01X103967Y52029D01*
G01X103967Y51633D01*
G01X103835Y51366D01*
G01X103700Y51234D01*
G01X103301Y51099D01*
G01X102108Y51099D01*
G01X104843Y52560D02*
G01X104843Y49773D01*
G01X104843Y52560D02*
G01X106037Y52560D01*
G01X106436Y52428D01*
G01X106568Y52296D01*
G01X106702Y52029D01*
G01X106702Y51765D01*
G01X106568Y51498D01*
G01X106436Y51366D01*
G01X106037Y51234D01*
G01X104843Y51234D01*
G01X105773Y51234D02*
G01X106702Y49773D01*
G01X108374Y52560D02*
G01X108110Y52428D01*
G01X107843Y52163D01*
G01X107711Y51897D01*
G01X107579Y51498D01*
G01X107579Y50835D01*
G01X107711Y50436D01*
G01X107843Y50172D01*
G01X108110Y49905D01*
G01X108374Y49773D01*
G01X108905Y49773D01*
G01X109171Y49905D01*
G01X109435Y50172D01*
G01X109570Y50436D01*
G01X109702Y50835D01*
G01X109702Y51498D01*
G01X109570Y51897D01*
G01X109435Y52163D01*
G01X109171Y52428D01*
G01X108905Y52560D01*
G01X108374Y52560D01*
G01X111907Y52560D02*
G01X111907Y50436D01*
G01X111772Y50038D01*
G01X111640Y49905D01*
G01X111376Y49773D01*
G01X111109Y49773D01*
G01X110845Y49905D01*
G01X110710Y50038D01*
G01X110578Y50436D01*
G01X110578Y50703D01*
G01X112783Y52560D02*
G01X112783Y49773D01*
G01X112783Y52560D02*
G01X114508Y52560D01*
G01X112783Y51234D02*
G01X113845Y51234D01*
G01X112783Y49773D02*
G01X114508Y49773D01*
G01X117375Y51897D02*
G01X117243Y52163D01*
G01X116979Y52428D01*
G01X116713Y52560D01*
G01X116182Y52560D01*
G01X115915Y52428D01*
G01X115651Y52163D01*
G01X115519Y51897D01*
G01X115384Y51498D01*
G01X115384Y50835D01*
G01X115519Y50436D01*
G01X115651Y50172D01*
G01X115915Y49905D01*
G01X116182Y49773D01*
G01X116713Y49773D01*
G01X116979Y49905D01*
G01X117243Y50172D01*
G01X117375Y50436D01*
G01X119181Y52560D02*
G01X119181Y49773D01*
G01X118252Y52560D02*
G01X120111Y52560D01*
G01X123032Y52560D02*
G01X123032Y49773D01*
G01X123032Y49773D02*
G01X124625Y49773D01*
G01X125501Y52560D02*
G01X125501Y49773D01*
G01X125501Y52560D02*
G01X127228Y52560D01*
G01X125501Y51234D02*
G01X126565Y51234D01*
G01X125501Y49773D02*
G01X127228Y49773D01*
G01X128104Y52560D02*
G01X128104Y49773D01*
G01X128104Y52560D02*
G01X129034Y52560D01*
G01X129433Y52428D01*
G01X129697Y52163D01*
G01X129832Y51897D01*
G01X129964Y51498D01*
G01X129964Y50835D01*
G01X129832Y50436D01*
G01X129697Y50172D01*
G01X129433Y49905D01*
G01X129034Y49773D01*
G01X128104Y49773D01*
G01X134876Y51897D02*
G01X134744Y52163D01*
G01X134477Y52428D01*
G01X134213Y52560D01*
G01X133680Y52560D01*
G01X133416Y52428D01*
G01X133149Y52163D01*
G01X133017Y51897D01*
G01X132885Y51498D01*
G01X132885Y50835D01*
G01X133017Y50436D01*
G01X133149Y50172D01*
G01X133416Y49905D01*
G01X133680Y49773D01*
G01X134213Y49773D01*
G01X134477Y49905D01*
G01X134744Y50172D01*
G01X134876Y50436D01*
G01X135752Y52560D02*
G01X135752Y50568D01*
G01X135884Y50172D01*
G01X136151Y49905D01*
G01X136550Y49773D01*
G01X136814Y49773D01*
G01X137213Y49905D01*
G01X137477Y50172D01*
G01X137612Y50568D01*
G01X137612Y52560D01*
G01X138488Y52560D02*
G01X138488Y49773D01*
G01X138488Y52560D02*
G01X139682Y52560D01*
G01X140081Y52428D01*
G01X140213Y52296D01*
G01X140347Y52029D01*
G01X140347Y51765D01*
G01X140213Y51498D01*
G01X140081Y51366D01*
G01X139682Y51234D01*
G01X138488Y51234D02*
G01X139682Y51234D01*
G01X140081Y51099D01*
G01X140213Y50967D01*
G01X140347Y50703D01*
G01X140347Y50304D01*
G01X140213Y50038D01*
G01X140081Y49905D01*
G01X139682Y49773D01*
G01X138488Y49773D01*
G01X141224Y52560D02*
G01X141224Y49773D01*
G01X141224Y52560D02*
G01X142948Y52560D01*
G01X141224Y51234D02*
G01X142285Y51234D01*
G01X141224Y49773D02*
G01X142948Y49773D01*
G01X132336Y70949D02*
G01X131221Y70949D01*
G01X132336Y70949D02*
G01X132336Y70472D01*
G01X132283Y70312D01*
G01X132229Y70258D01*
G01X132123Y70205D01*
G01X132016Y70205D01*
G01X131912Y70258D01*
G01X131859Y70312D01*
G01X131805Y70472D01*
G01X131805Y70949D01*
G01X131805Y70578D02*
G01X131221Y70205D01*
G01X132336Y69854D02*
G01X131221Y69854D01*
G01X132336Y69854D02*
G01X132336Y69164D01*
G01X131805Y69854D02*
G01X131805Y69430D01*
G01X131221Y69854D02*
G01X131221Y69164D01*
G01X132176Y68071D02*
G01X132283Y68178D01*
G01X132336Y68336D01*
G01X132336Y68549D01*
G01X132283Y68709D01*
G01X132176Y68813D01*
G01X132069Y68813D01*
G01X131965Y68762D01*
G01X131912Y68709D01*
G01X131859Y68602D01*
G01X131752Y68282D01*
G01X131699Y68178D01*
G01X131645Y68125D01*
G01X131538Y68071D01*
G01X131381Y68071D01*
G01X131274Y68178D01*
G01X131221Y68336D01*
G01X131221Y68549D01*
G01X131274Y68709D01*
G01X131381Y68813D01*
G01X132336Y67721D02*
G01X131221Y67721D01*
G01X132336Y67721D02*
G01X132336Y67030D01*
G01X131805Y67721D02*
G01X131805Y67294D01*
G01X131221Y67721D02*
G01X131221Y67030D01*
G01X132336Y66309D02*
G01X131221Y66309D01*
G01X132336Y66679D02*
G01X132336Y65935D01*
G01X129921Y70959D02*
G01X129921Y70375D01*
G01X129496Y70695D01*
G01X129496Y70535D01*
G01X129443Y70428D01*
G01X129390Y70375D01*
G01X129230Y70322D01*
G01X129123Y70322D01*
G01X128965Y70375D01*
G01X128859Y70482D01*
G01X128805Y70642D01*
G01X128805Y70799D01*
G01X128859Y70959D01*
G01X128912Y71013D01*
G01X129016Y71066D01*
G01X129921Y69971D02*
G01X128805Y69547D01*
G01X129921Y69123D02*
G01X128805Y69547D01*
G01X129921Y68666D02*
G01X129921Y68082D01*
G01X129496Y68399D01*
G01X129496Y68242D01*
G01X129443Y68135D01*
G01X129390Y68082D01*
G01X129230Y68028D01*
G01X129123Y68028D01*
G01X128965Y68082D01*
G01X128859Y68188D01*
G01X128805Y68346D01*
G01X128805Y68506D01*
G01X128859Y68666D01*
G01X128912Y68719D01*
G01X129016Y68772D01*
G01X112168Y70660D02*
G01X112445Y71389D01*
G01X112168Y70660D02*
G01X111892Y71389D01*
G01X112341Y71145D02*
G01X111996Y71145D01*
G01X111663Y70799D02*
G01X111594Y70764D01*
G01X111490Y70660D01*
G01X111490Y71389D01*
G01X109628Y70660D02*
G01X109905Y71389D01*
G01X109628Y70660D02*
G01X109352Y71389D01*
G01X109801Y71145D02*
G01X109456Y71145D01*
G01X109087Y70835D02*
G01X109087Y70799D01*
G01X109054Y70731D01*
G01X109019Y70695D01*
G01X108950Y70660D01*
G01X108811Y70660D01*
G01X108742Y70695D01*
G01X108706Y70731D01*
G01X108673Y70799D01*
G01X108673Y70868D01*
G01X108706Y70936D01*
G01X108775Y71041D01*
G01X109123Y71389D01*
G01X108638Y71389D01*
G01X107088Y70660D02*
G01X107365Y71389D01*
G01X107088Y70660D02*
G01X106812Y71389D01*
G01X107261Y71145D02*
G01X106916Y71145D01*
G01X106514Y70660D02*
G01X106133Y70660D01*
G01X106339Y70936D01*
G01X106235Y70936D01*
G01X106166Y70972D01*
G01X106133Y71008D01*
G01X106098Y71112D01*
G01X106098Y71180D01*
G01X106133Y71284D01*
G01X106202Y71353D01*
G01X106306Y71389D01*
G01X106410Y71389D01*
G01X106514Y71353D01*
G01X106547Y71317D01*
G01X106583Y71249D01*
G01X104548Y70660D02*
G01X104825Y71389D01*
G01X104548Y70660D02*
G01X104272Y71389D01*
G01X104721Y71145D02*
G01X104376Y71145D01*
G01X103695Y70660D02*
G01X104043Y71145D01*
G01X103522Y71145D01*
G01X103695Y70660D02*
G01X103695Y71389D01*
G01X102008Y70660D02*
G01X102285Y71389D01*
G01X102008Y70660D02*
G01X101732Y71389D01*
G01X102181Y71145D02*
G01X101836Y71145D01*
G01X101086Y70660D02*
G01X101434Y70660D01*
G01X101467Y70972D01*
G01X101434Y70936D01*
G01X101330Y70903D01*
G01X101226Y70903D01*
G01X101122Y70936D01*
G01X101053Y71008D01*
G01X101018Y71112D01*
G01X101018Y71180D01*
G01X101053Y71284D01*
G01X101122Y71353D01*
G01X101226Y71389D01*
G01X101330Y71389D01*
G01X101434Y71353D01*
G01X101467Y71317D01*
G01X101503Y71249D01*
G01X120523Y70060D02*
G01X120098Y71175D01*
G01X119672Y70060D02*
G01X120098Y71175D01*
G01X119321Y70060D02*
G01X119321Y71175D01*
G01X118971Y70060D02*
G01X118971Y71175D01*
G01X118971Y70060D02*
G01X118229Y71175D01*
G01X118229Y70060D02*
G01X118229Y71175D01*
G01X123789Y70327D02*
G01X123842Y70220D01*
G01X123949Y70114D01*
G01X124056Y70060D01*
G01X124269Y70060D01*
G01X124373Y70114D01*
G01X124480Y70220D01*
G01X124533Y70327D01*
G01X124587Y70484D01*
G01X124587Y70751D01*
G01X124533Y70911D01*
G01X124480Y71015D01*
G01X124373Y71122D01*
G01X124269Y71175D01*
G01X124056Y71175D01*
G01X123949Y71122D01*
G01X123842Y71015D01*
G01X123789Y70911D01*
G01X123789Y70751D01*
G01X124056Y70751D02*
G01X123789Y70751D01*
G01X123438Y70060D02*
G01X123438Y71175D01*
G01X123438Y70060D02*
G01X122697Y71175D01*
G01X122697Y70060D02*
G01X122697Y71175D01*
G01X122346Y70060D02*
G01X122346Y71175D01*
G01X122346Y70060D02*
G01X121973Y70060D01*
G01X121815Y70114D01*
G01X121709Y70220D01*
G01X121655Y70327D01*
G01X121602Y70484D01*
G01X121602Y70751D01*
G01X121655Y70911D01*
G01X121709Y71015D01*
G01X121815Y71122D01*
G01X121973Y71175D01*
G01X122346Y71175D01*
G01X136354Y26372D02*
G01X136301Y26479D01*
G01X136141Y26639D01*
G01X137256Y26639D01*
G01X136141Y27094D02*
G01X136141Y27678D01*
G01X136565Y27360D01*
G01X136565Y27520D01*
G01X136618Y27624D01*
G01X136672Y27678D01*
G01X136832Y27731D01*
G01X136939Y27731D01*
G01X137096Y27678D01*
G01X137203Y27574D01*
G01X137256Y27414D01*
G01X137256Y27254D01*
G01X137203Y27094D01*
G01X137149Y27040D01*
G01X137045Y26989D01*
G01X133814Y26372D02*
G01X133761Y26479D01*
G01X133601Y26639D01*
G01X134716Y26639D01*
G01X133868Y27040D02*
G01X133814Y27040D01*
G01X133708Y27094D01*
G01X133654Y27147D01*
G01X133601Y27254D01*
G01X133601Y27467D01*
G01X133654Y27574D01*
G01X133708Y27624D01*
G01X133814Y27678D01*
G01X133921Y27678D01*
G01X134025Y27624D01*
G01X134185Y27520D01*
G01X134716Y26989D01*
G01X134716Y27731D01*
G01X131274Y26372D02*
G01X131221Y26479D01*
G01X131061Y26639D01*
G01X132176Y26639D01*
G01X131274Y26989D02*
G01X131221Y27094D01*
G01X131061Y27254D01*
G01X132176Y27254D01*
G01X128734Y26372D02*
G01X128681Y26479D01*
G01X128521Y26639D01*
G01X129636Y26639D01*
G01X128521Y27307D02*
G01X128574Y27147D01*
G01X128734Y27040D01*
G01X128998Y26989D01*
G01X129159Y26989D01*
G01X129425Y27040D01*
G01X129583Y27147D01*
G01X129636Y27307D01*
G01X129636Y27414D01*
G01X129583Y27574D01*
G01X129425Y27678D01*
G01X129159Y27731D01*
G01X128998Y27731D01*
G01X128734Y27678D01*
G01X128574Y27574D01*
G01X128521Y27414D01*
G01X128521Y27307D01*
G01X126352Y27063D02*
G01X126512Y27010D01*
G01X126619Y26903D01*
G01X126672Y26743D01*
G01X126672Y26690D01*
G01X126619Y26532D01*
G01X126512Y26426D01*
G01X126352Y26372D01*
G01X126301Y26372D01*
G01X126141Y26426D01*
G01X126034Y26532D01*
G01X125981Y26690D01*
G01X125981Y26743D01*
G01X126034Y26903D01*
G01X126141Y27010D01*
G01X126352Y27063D01*
G01X126619Y27063D01*
G01X126885Y27010D01*
G01X127043Y26903D01*
G01X127096Y26743D01*
G01X127096Y26639D01*
G01X127043Y26479D01*
G01X126936Y26426D01*
G01X123441Y26639D02*
G01X123494Y26479D01*
G01X123601Y26426D01*
G01X123708Y26426D01*
G01X123812Y26479D01*
G01X123865Y26586D01*
G01X123918Y26796D01*
G01X123972Y26956D01*
G01X124079Y27063D01*
G01X124185Y27116D01*
G01X124345Y27116D01*
G01X124449Y27063D01*
G01X124503Y27010D01*
G01X124556Y26850D01*
G01X124556Y26639D01*
G01X124503Y26479D01*
G01X124449Y26426D01*
G01X124345Y26372D01*
G01X124185Y26372D01*
G01X124079Y26426D01*
G01X123972Y26532D01*
G01X123918Y26690D01*
G01X123865Y26903D01*
G01X123812Y27010D01*
G01X123708Y27063D01*
G01X123601Y27063D01*
G01X123494Y27010D01*
G01X123441Y26850D01*
G01X123441Y26639D01*
G01X119377Y27116D02*
G01X120492Y26586D01*
G01X119377Y26372D02*
G01X119377Y27116D01*
G01X116997Y27010D02*
G01X116890Y26956D01*
G01X116837Y26796D01*
G01X116837Y26690D01*
G01X116890Y26532D01*
G01X117050Y26426D01*
G01X117314Y26372D01*
G01X117581Y26372D01*
G01X117792Y26426D01*
G01X117899Y26532D01*
G01X117952Y26690D01*
G01X117952Y26743D01*
G01X117899Y26903D01*
G01X117792Y27010D01*
G01X117635Y27063D01*
G01X117581Y27063D01*
G01X117421Y27010D01*
G01X117314Y26903D01*
G01X117261Y26743D01*
G01X117261Y26690D01*
G01X117314Y26532D01*
G01X117421Y26426D01*
G01X117581Y26372D01*
G01X114297Y27010D02*
G01X114297Y26479D01*
G01X114774Y26426D01*
G01X114721Y26479D01*
G01X114668Y26639D01*
G01X114668Y26796D01*
G01X114721Y26956D01*
G01X114828Y27063D01*
G01X114988Y27116D01*
G01X115095Y27116D01*
G01X115252Y27063D01*
G01X115359Y26956D01*
G01X115412Y26796D01*
G01X115412Y26639D01*
G01X115359Y26479D01*
G01X115305Y26426D01*
G01X115201Y26372D01*
G01X111757Y26903D02*
G01X112501Y26372D01*
G01X112501Y27170D01*
G01X111757Y26903D02*
G01X112872Y26903D01*
G01X109217Y26479D02*
G01X109217Y27063D01*
G01X109641Y26743D01*
G01X109641Y26903D01*
G01X109694Y27010D01*
G01X109748Y27063D01*
G01X109908Y27116D01*
G01X110015Y27116D01*
G01X110172Y27063D01*
G01X110279Y26956D01*
G01X110332Y26796D01*
G01X110332Y26639D01*
G01X110279Y26479D01*
G01X110225Y26426D01*
G01X110121Y26372D01*
G01X106944Y26426D02*
G01X106890Y26426D01*
G01X106784Y26479D01*
G01X106730Y26532D01*
G01X106677Y26639D01*
G01X106677Y26850D01*
G01X106730Y26956D01*
G01X106784Y27010D01*
G01X106890Y27063D01*
G01X106997Y27063D01*
G01X107101Y27010D01*
G01X107261Y26903D01*
G01X107792Y26372D01*
G01X107792Y27116D01*
G01X104350Y26372D02*
G01X104297Y26479D01*
G01X104137Y26639D01*
G01X105252Y26639D01*
G01X101597Y26690D02*
G01X101650Y26532D01*
G01X101810Y26426D01*
G01X102074Y26372D01*
G01X102235Y26372D01*
G01X102501Y26426D01*
G01X102659Y26532D01*
G01X102712Y26690D01*
G01X102712Y26796D01*
G01X102659Y26956D01*
G01X102501Y27063D01*
G01X102235Y27116D01*
G01X102074Y27116D01*
G01X101810Y27063D01*
G01X101650Y26956D01*
G01X101597Y26796D01*
G01X101597Y26690D01*
G01X135001Y70881D02*
G01X133885Y70881D01*
G01X135001Y70213D02*
G01X134947Y70317D01*
G01X134840Y70423D01*
G01X134734Y70477D01*
G01X134576Y70530D01*
G01X134310Y70530D01*
G01X134150Y70477D01*
G01X134045Y70423D01*
G01X133939Y70317D01*
G01X133885Y70213D01*
G01X133885Y69999D01*
G01X133939Y69893D01*
G01X134045Y69786D01*
G01X134150Y69733D01*
G01X134310Y69679D01*
G01X134576Y69679D01*
G01X134734Y69733D01*
G01X134840Y69786D01*
G01X134947Y69893D01*
G01X135001Y69999D01*
G01X135001Y70213D01*
G01X135001Y69329D02*
G01X133885Y69329D01*
G01X135001Y69329D02*
G01X135001Y68851D01*
G01X134947Y68694D01*
G01X134894Y68640D01*
G01X134787Y68587D01*
G01X134680Y68587D01*
G01X134576Y68640D01*
G01X134523Y68694D01*
G01X134470Y68851D01*
G01X134470Y69329D01*
G01X134470Y68958D02*
G01X133885Y68587D01*
G01X135001Y68236D02*
G01X133885Y68236D01*
G01X135001Y68236D02*
G01X135001Y67546D01*
G01X134470Y68236D02*
G01X134470Y67810D01*
G01X133885Y68236D02*
G01X133885Y67546D01*
G01X135001Y67195D02*
G01X133885Y67195D01*
G01X135001Y67195D02*
G01X135001Y66504D01*
G01X134470Y67195D02*
G01X134470Y66771D01*
G01X143667Y27370D02*
G01X143560Y27264D01*
G01X143507Y27104D01*
G01X143507Y26893D01*
G01X143560Y26733D01*
G01X143667Y26626D01*
G01X143774Y26626D01*
G01X143878Y26680D01*
G01X143931Y26733D01*
G01X143984Y26840D01*
G01X144091Y27157D01*
G01X144145Y27264D01*
G01X144198Y27317D01*
G01X144305Y27370D01*
G01X144462Y27370D01*
G01X144569Y27264D01*
G01X144622Y27104D01*
G01X144622Y26893D01*
G01X144569Y26733D01*
G01X144462Y26626D01*
G01X143507Y27721D02*
G01X144622Y27721D01*
G01X143507Y27721D02*
G01X143507Y28092D01*
G01X143560Y28252D01*
G01X143667Y28358D01*
G01X143774Y28412D01*
G01X143931Y28463D01*
G01X144198Y28463D01*
G01X144358Y28412D01*
G01X144462Y28358D01*
G01X144569Y28252D01*
G01X144622Y28092D01*
G01X144622Y27721D01*
G01X143507Y29240D02*
G01X144622Y28813D01*
G01X143507Y29240D02*
G01X144622Y29664D01*
G01X144251Y28973D02*
G01X144251Y29504D01*
G01X146207Y27370D02*
G01X146100Y27264D01*
G01X146047Y27104D01*
G01X146047Y26893D01*
G01X146100Y26733D01*
G01X146207Y26626D01*
G01X146314Y26626D01*
G01X146418Y26680D01*
G01X146471Y26733D01*
G01X146524Y26840D01*
G01X146631Y27157D01*
G01X146685Y27264D01*
G01X146738Y27317D01*
G01X146845Y27370D01*
G01X147002Y27370D01*
G01X147109Y27264D01*
G01X147162Y27104D01*
G01X147162Y26893D01*
G01X147109Y26733D01*
G01X147002Y26626D01*
G01X146314Y28516D02*
G01X146207Y28463D01*
G01X146100Y28358D01*
G01X146047Y28252D01*
G01X146047Y28038D01*
G01X146100Y27932D01*
G01X146207Y27828D01*
G01X146314Y27774D01*
G01X146471Y27721D01*
G01X146738Y27721D01*
G01X146898Y27774D01*
G01X147002Y27828D01*
G01X147109Y27932D01*
G01X147162Y28038D01*
G01X147162Y28252D01*
G01X147109Y28358D01*
G01X147002Y28463D01*
G01X146898Y28516D01*
G01X146047Y28866D02*
G01X147162Y28866D01*
G01X147162Y28866D02*
G01X147162Y29504D01*
G01X137447Y71076D02*
G01X136331Y71076D01*
G01X137447Y71076D02*
G01X137447Y70599D01*
G01X137393Y70439D01*
G01X137340Y70385D01*
G01X137233Y70332D01*
G01X137076Y70332D01*
G01X136969Y70385D01*
G01X136916Y70439D01*
G01X136862Y70599D01*
G01X136862Y71076D01*
G01X137447Y69664D02*
G01X137393Y69771D01*
G01X137287Y69875D01*
G01X137180Y69928D01*
G01X137022Y69981D01*
G01X136756Y69981D01*
G01X136596Y69928D01*
G01X136491Y69875D01*
G01X136385Y69771D01*
G01X136331Y69664D01*
G01X136331Y69451D01*
G01X136385Y69344D01*
G01X136491Y69240D01*
G01X136596Y69186D01*
G01X136756Y69133D01*
G01X137022Y69133D01*
G01X137180Y69186D01*
G01X137287Y69240D01*
G01X137393Y69344D01*
G01X137447Y69451D01*
G01X137447Y69664D01*
G01X137447Y68783D02*
G01X136331Y68516D01*
G01X137447Y68252D02*
G01X136331Y68516D01*
G01X137447Y68252D02*
G01X136331Y67985D01*
G01X137447Y67721D02*
G01X136331Y67985D01*
G01X137447Y67370D02*
G01X136331Y67370D01*
G01X137447Y67370D02*
G01X137447Y66679D01*
G01X136916Y67370D02*
G01X136916Y66944D01*
G01X136331Y67370D02*
G01X136331Y66679D01*
G01X137447Y66329D02*
G01X136331Y66329D01*
G01X137447Y66329D02*
G01X137447Y65851D01*
G01X137393Y65691D01*
G01X137340Y65638D01*
G01X137233Y65585D01*
G01X137126Y65585D01*
G01X137022Y65638D01*
G01X136969Y65691D01*
G01X136916Y65851D01*
G01X136916Y66329D01*
G01X136916Y65956D02*
G01X136331Y65585D01*
G01X102435Y46558D02*
G01X102435Y45831D01*
G01X102389Y45694D01*
G01X102344Y45648D01*
G01X102252Y45603D01*
G01X102163Y45603D01*
G01X102072Y45648D01*
G01X102026Y45694D01*
G01X101981Y45831D01*
G01X101981Y45923D01*
G01X102735Y46558D02*
G01X102735Y45603D01*
G01X102735Y45603D02*
G01X103281Y45603D01*
G01X104261Y46332D02*
G01X104216Y46423D01*
G01X104127Y46512D01*
G01X104035Y46558D01*
G01X103852Y46558D01*
G01X103764Y46512D01*
G01X103672Y46423D01*
G01X103626Y46332D01*
G01X103581Y46194D01*
G01X103581Y45968D01*
G01X103626Y45831D01*
G01X103672Y45740D01*
G01X103764Y45648D01*
G01X103852Y45603D01*
G01X104035Y45603D01*
G01X104127Y45648D01*
G01X104216Y45740D01*
G01X104261Y45831D01*
G01X105016Y46558D02*
G01X105016Y45831D01*
G01X104973Y45694D01*
G01X104927Y45648D01*
G01X104835Y45603D01*
G01X104744Y45603D01*
G01X104653Y45648D01*
G01X104607Y45694D01*
G01X104561Y45831D01*
G01X104561Y45923D01*
G01X105318Y46558D02*
G01X105318Y45603D01*
G01X105318Y45603D02*
G01X105862Y45603D01*
G01X106845Y46332D02*
G01X106799Y46423D01*
G01X106707Y46512D01*
G01X106616Y46558D01*
G01X106436Y46558D01*
G01X106344Y46512D01*
G01X106253Y46423D01*
G01X106207Y46332D01*
G01X106161Y46194D01*
G01X106161Y45968D01*
G01X106207Y45831D01*
G01X106253Y45740D01*
G01X106344Y45648D01*
G01X106436Y45603D01*
G01X106616Y45603D01*
G01X106707Y45648D01*
G01X106799Y45740D01*
G01X106845Y45831D01*
G01X107599Y46558D02*
G01X107599Y45831D01*
G01X107553Y45694D01*
G01X107508Y45648D01*
G01X107416Y45603D01*
G01X107327Y45603D01*
G01X107236Y45648D01*
G01X107190Y45694D01*
G01X107144Y45831D01*
G01X107144Y45923D01*
G01X107899Y46558D02*
G01X107899Y45603D01*
G01X107899Y45603D02*
G01X108445Y45603D01*
G01X109425Y46332D02*
G01X109380Y46423D01*
G01X109291Y46512D01*
G01X109199Y46558D01*
G01X109016Y46558D01*
G01X108925Y46512D01*
G01X108836Y46423D01*
G01X108790Y46332D01*
G01X108745Y46194D01*
G01X108745Y45968D01*
G01X108790Y45831D01*
G01X108836Y45740D01*
G01X108925Y45648D01*
G01X109016Y45603D01*
G01X109199Y45603D01*
G01X109291Y45648D01*
G01X109380Y45740D01*
G01X109425Y45831D01*
G01X110180Y46558D02*
G01X110180Y45831D01*
G01X110134Y45694D01*
G01X110091Y45648D01*
G01X109999Y45603D01*
G01X109908Y45603D01*
G01X109816Y45648D01*
G01X109771Y45694D01*
G01X109725Y45831D01*
G01X109725Y45923D01*
G01X110479Y46558D02*
G01X110479Y45603D01*
G01X110479Y45603D02*
G01X111025Y45603D01*
G01X112008Y46332D02*
G01X111963Y46423D01*
G01X111871Y46512D01*
G01X111780Y46558D01*
G01X111599Y46558D01*
G01X111508Y46512D01*
G01X111417Y46423D01*
G01X111371Y46332D01*
G01X111325Y46194D01*
G01X111325Y45968D01*
G01X111371Y45831D01*
G01X111417Y45740D01*
G01X111508Y45648D01*
G01X111599Y45603D01*
G01X111780Y45603D01*
G01X111871Y45648D01*
G01X111963Y45740D01*
G01X112008Y45831D01*
G01X102745Y48582D02*
G01X102654Y48671D01*
G01X102516Y48717D01*
G01X102334Y48717D01*
G01X102199Y48671D01*
G01X102108Y48582D01*
G01X102108Y48491D01*
G01X102153Y48399D01*
G01X102199Y48353D01*
G01X102290Y48308D01*
G01X102562Y48216D01*
G01X102654Y48173D01*
G01X102699Y48127D01*
G01X102745Y48036D01*
G01X102745Y47899D01*
G01X102654Y47807D01*
G01X102516Y47762D01*
G01X102334Y47762D01*
G01X102199Y47807D01*
G01X102108Y47899D01*
G01X103179Y48717D02*
G01X103179Y47945D01*
G01X103225Y47807D01*
G01X103317Y47762D01*
G01X103408Y47762D01*
G01X103045Y48399D02*
G01X103362Y48399D01*
G01X103708Y48127D02*
G01X104254Y48127D01*
G01X104254Y48216D01*
G01X104208Y48308D01*
G01X104162Y48353D01*
G01X104071Y48399D01*
G01X103934Y48399D01*
G01X103845Y48353D01*
G01X103753Y48262D01*
G01X103708Y48127D01*
G01X103708Y48036D01*
G01X103753Y47899D01*
G01X103845Y47807D01*
G01X103934Y47762D01*
G01X104071Y47762D01*
G01X104162Y47807D01*
G01X104254Y47899D01*
G01X104917Y48717D02*
G01X104825Y48717D01*
G01X104734Y48671D01*
G01X104688Y48536D01*
G01X104688Y47762D01*
G01X104554Y48399D02*
G01X104871Y48399D01*
G01X106189Y48717D02*
G01X106098Y48671D01*
G01X106006Y48582D01*
G01X105963Y48491D01*
G01X105918Y48353D01*
G01X105918Y48127D01*
G01X105963Y47990D01*
G01X106006Y47899D01*
G01X106098Y47807D01*
G01X106189Y47762D01*
G01X106372Y47762D01*
G01X106461Y47807D01*
G01X106553Y47899D01*
G01X106598Y47990D01*
G01X106644Y48127D01*
G01X106644Y48353D01*
G01X106598Y48491D01*
G01X106553Y48582D01*
G01X106461Y48671D01*
G01X106372Y48717D01*
G01X106189Y48717D01*
G01X107081Y48717D02*
G01X107081Y47945D01*
G01X107127Y47807D01*
G01X107215Y47762D01*
G01X107307Y47762D01*
G01X106944Y48399D02*
G01X107261Y48399D01*
G01X107744Y48717D02*
G01X107744Y47945D01*
G01X107789Y47807D01*
G01X107881Y47762D01*
G01X107972Y47762D01*
G01X107607Y48399D02*
G01X107927Y48399D01*
G01X108272Y48127D02*
G01X108816Y48127D01*
G01X108816Y48216D01*
G01X108770Y48308D01*
G01X108727Y48353D01*
G01X108635Y48399D01*
G01X108498Y48399D01*
G01X108407Y48353D01*
G01X108318Y48262D01*
G01X108272Y48127D01*
G01X108272Y48036D01*
G01X108318Y47899D01*
G01X108407Y47807D01*
G01X108498Y47762D01*
G01X108635Y47762D01*
G01X108727Y47807D01*
G01X108816Y47899D01*
G01X109115Y48399D02*
G01X109115Y47762D01*
G01X109115Y48216D02*
G01X109253Y48353D01*
G01X109344Y48399D01*
G01X109481Y48399D01*
G01X109570Y48353D01*
G01X109616Y48216D01*
G01X109616Y47762D01*
G01X109915Y48717D02*
G01X109915Y47762D01*
G01X109915Y48216D02*
G01X110053Y48353D01*
G01X110144Y48399D01*
G01X110281Y48399D01*
G01X110370Y48353D01*
G01X110416Y48216D01*
G01X110416Y47762D01*
G01X110944Y48399D02*
G01X110853Y48353D01*
G01X110761Y48262D01*
G01X110716Y48127D01*
G01X110716Y48036D01*
G01X110761Y47899D01*
G01X110853Y47807D01*
G01X110944Y47762D01*
G01X111081Y47762D01*
G01X111170Y47807D01*
G01X111262Y47899D01*
G01X111307Y48036D01*
G01X111307Y48127D01*
G01X111262Y48262D01*
G01X111170Y48353D01*
G01X111081Y48399D01*
G01X110944Y48399D01*
G01X111970Y48717D02*
G01X111881Y48717D01*
G01X111790Y48671D01*
G01X111744Y48536D01*
G01X111744Y47762D01*
G01X111607Y48399D02*
G01X111925Y48399D01*
G01X113880Y48308D02*
G01X113880Y48353D01*
G01X113835Y48399D01*
G01X113789Y48399D01*
G01X113743Y48353D01*
G01X113698Y48262D01*
G01X113609Y48036D01*
G01X113517Y47899D01*
G01X113426Y47807D01*
G01X113334Y47762D01*
G01X113154Y47762D01*
G01X113063Y47807D01*
G01X113017Y47853D01*
G01X112971Y47945D01*
G01X112971Y48036D01*
G01X113017Y48127D01*
G01X113063Y48173D01*
G01X113380Y48353D01*
G01X113426Y48399D01*
G01X113471Y48491D01*
G01X113471Y48582D01*
G01X113426Y48671D01*
G01X113334Y48717D01*
G01X113243Y48671D01*
G01X113197Y48582D01*
G01X113197Y48491D01*
G01X113243Y48353D01*
G01X113334Y48216D01*
G01X113563Y47899D01*
G01X113652Y47807D01*
G01X113743Y47762D01*
G01X113835Y47762D01*
G01X113880Y47807D01*
G01X113880Y47853D01*
G01X115244Y48717D02*
G01X114881Y47762D01*
G01X115244Y48717D02*
G01X115608Y47762D01*
G01X115016Y48082D02*
G01X115470Y48082D01*
G01X115907Y48717D02*
G01X115907Y47762D01*
G01X115907Y48262D02*
G01X115999Y48353D01*
G01X116090Y48399D01*
G01X116225Y48399D01*
G01X116316Y48353D01*
G01X116408Y48262D01*
G01X116453Y48127D01*
G01X116453Y48036D01*
G01X116408Y47899D01*
G01X116316Y47807D01*
G01X116225Y47762D01*
G01X116090Y47762D01*
G01X115999Y47807D01*
G01X115907Y47899D01*
G01X117299Y48717D02*
G01X117299Y47762D01*
G01X117299Y48262D02*
G01X117208Y48353D01*
G01X117116Y48399D01*
G01X116979Y48399D01*
G01X116890Y48353D01*
G01X116799Y48262D01*
G01X116753Y48127D01*
G01X116753Y48036D01*
G01X116799Y47899D01*
G01X116890Y47807D01*
G01X116979Y47762D01*
G01X117116Y47762D01*
G01X117208Y47807D01*
G01X117299Y47899D01*
G01X117599Y48399D02*
G01X117599Y47945D01*
G01X117645Y47807D01*
G01X117734Y47762D01*
G01X117871Y47762D01*
G01X117962Y47807D01*
G01X118099Y47945D01*
G01X118099Y48399D02*
G01X118099Y47762D01*
G01X118399Y48717D02*
G01X118399Y47762D01*
G01X118699Y48717D02*
G01X118699Y47762D01*
G01X119545Y48399D02*
G01X119545Y47762D01*
G01X119545Y48262D02*
G01X119453Y48353D01*
G01X119362Y48399D01*
G01X119225Y48399D01*
G01X119136Y48353D01*
G01X119044Y48262D01*
G01X118999Y48127D01*
G01X118999Y48036D01*
G01X119044Y47899D01*
G01X119136Y47807D01*
G01X119225Y47762D01*
G01X119362Y47762D01*
G01X119453Y47807D01*
G01X119545Y47899D01*
G01X120390Y48399D02*
G01X120390Y47762D01*
G01X120390Y48262D02*
G01X120299Y48353D01*
G01X120208Y48399D01*
G01X120070Y48399D01*
G01X119981Y48353D01*
G01X119890Y48262D01*
G01X119844Y48127D01*
G01X119844Y48036D01*
G01X119890Y47899D01*
G01X119981Y47807D01*
G01X120070Y47762D01*
G01X120208Y47762D01*
G01X120299Y47807D01*
G01X120390Y47899D01*
G01X120690Y48717D02*
G01X120690Y47762D01*
G01X120690Y48216D02*
G01X120825Y48353D01*
G01X120916Y48399D01*
G01X121053Y48399D01*
G01X121145Y48353D01*
G01X121191Y48216D01*
G01X121191Y47762D01*
G01X121490Y48717D02*
G01X121536Y48671D01*
G01X121579Y48717D01*
G01X121536Y48762D01*
G01X121490Y48717D01*
G01X121536Y48399D02*
G01X121536Y47762D01*
G01X122580Y48717D02*
G01X122943Y48262D01*
G01X122943Y47762D01*
G01X123306Y48717D02*
G01X122943Y48262D01*
G01X123609Y48399D02*
G01X123609Y47945D01*
G01X123652Y47807D01*
G01X123743Y47762D01*
G01X123880Y47762D01*
G01X123972Y47807D01*
G01X124106Y47945D01*
G01X124106Y48399D02*
G01X124106Y47762D01*
G01X124907Y48262D02*
G01X124861Y48353D01*
G01X124726Y48399D01*
G01X124589Y48399D01*
G01X124452Y48353D01*
G01X124409Y48262D01*
G01X124452Y48173D01*
G01X124543Y48127D01*
G01X124772Y48082D01*
G01X124861Y48036D01*
G01X124907Y47945D01*
G01X124907Y47899D01*
G01X124861Y47807D01*
G01X124726Y47762D01*
G01X124589Y47762D01*
G01X124452Y47807D01*
G01X124409Y47899D01*
G01X125206Y48399D02*
G01X125206Y47945D01*
G01X125252Y47807D01*
G01X125343Y47762D01*
G01X125481Y47762D01*
G01X125572Y47807D01*
G01X125707Y47945D01*
G01X125707Y48399D02*
G01X125707Y47762D01*
G01X126006Y48399D02*
G01X126006Y47945D01*
G01X126052Y47807D01*
G01X126144Y47762D01*
G01X126281Y47762D01*
G01X126372Y47807D01*
G01X126507Y47945D01*
G01X126507Y48399D02*
G01X126507Y47762D01*
G01X127172Y48717D02*
G01X127081Y48717D01*
G01X126989Y48671D01*
G01X126944Y48536D01*
G01X126944Y47762D01*
G01X126806Y48399D02*
G01X127127Y48399D01*
G01X39116Y79087D02*
G01X39842Y77998D01*
G01X39842Y79087D02*
G01X39116Y77998D01*
G01X26924Y78051D02*
G01X26507Y78569D01*
G01X26507Y79141D01*
G01X26093Y78051D02*
G01X26507Y78569D01*
G01X13497Y78051D02*
G01X14224Y79141D01*
G01X14224Y78051D02*
G01X13497Y78051D01*
G01X14224Y79141D02*
G01X13497Y79141D01*
G01X78750Y28404D02*
G01X77970Y28404D01*
G01X77815Y28354D01*
G01X77711Y28249D01*
G01X77660Y28092D01*
G01X77660Y27988D01*
G01X77711Y27833D01*
G01X77815Y27729D01*
G01X77970Y27678D01*
G01X78750Y27678D01*
G01X78541Y27335D02*
G01X78595Y27231D01*
G01X78750Y27073D01*
G01X77660Y27073D01*
G01X78623Y55709D02*
G01X77843Y55709D01*
G01X77688Y55659D01*
G01X77584Y55554D01*
G01X77533Y55397D01*
G01X77533Y55293D01*
G01X77584Y55138D01*
G01X77688Y55034D01*
G01X77843Y54983D01*
G01X78623Y54983D01*
G01X78364Y54587D02*
G01X78414Y54587D01*
G01X78519Y54536D01*
G01X78572Y54483D01*
G01X78623Y54378D01*
G01X78623Y54173D01*
G01X78572Y54068D01*
G01X78519Y54015D01*
G01X78414Y53964D01*
G01X78310Y53964D01*
G01X78206Y54015D01*
G01X78051Y54119D01*
G01X77533Y54640D01*
G01X77533Y53911D01*
G01X49276Y20413D02*
G01X49276Y19324D01*
G01X49276Y19324D02*
G01X49898Y19324D01*
G01X50657Y20413D02*
G01X50241Y19324D01*
G01X50657Y20413D02*
G01X51074Y19324D01*
G01X50398Y19687D02*
G01X50916Y19687D01*
G01X51417Y20413D02*
G01X51831Y19895D01*
G01X51831Y19324D01*
G01X52247Y20413D02*
G01X51831Y19895D01*
G01X52590Y20413D02*
G01X52590Y19324D01*
G01X52590Y20413D02*
G01X53266Y20413D01*
G01X52590Y19895D02*
G01X53007Y19895D01*
G01X52590Y19324D02*
G01X53266Y19324D01*
G01X53609Y20413D02*
G01X53609Y19324D01*
G01X53609Y20413D02*
G01X54076Y20413D01*
G01X54231Y20363D01*
G01X54284Y20309D01*
G01X54335Y20205D01*
G01X54335Y20101D01*
G01X54284Y19997D01*
G01X54231Y19946D01*
G01X54076Y19895D01*
G01X53609Y19895D01*
G01X53972Y19895D02*
G01X54335Y19324D01*
G01X55199Y20413D02*
G01X54678Y19687D01*
G01X55458Y19687D01*
G01X55199Y20413D02*
G01X55199Y19324D01*
G01X34290Y20413D02*
G01X34290Y19324D01*
G01X34290Y19324D02*
G01X34912Y19324D01*
G01X35671Y20413D02*
G01X35255Y19324D01*
G01X35671Y20413D02*
G01X36088Y19324D01*
G01X35412Y19687D02*
G01X35930Y19687D01*
G01X36431Y20413D02*
G01X36845Y19895D01*
G01X36845Y19324D01*
G01X37261Y20413D02*
G01X36845Y19895D01*
G01X37604Y20413D02*
G01X37604Y19324D01*
G01X37604Y20413D02*
G01X38280Y20413D01*
G01X37604Y19895D02*
G01X38021Y19895D01*
G01X37604Y19324D02*
G01X38280Y19324D01*
G01X38623Y20413D02*
G01X38623Y19324D01*
G01X38623Y20413D02*
G01X39090Y20413D01*
G01X39245Y20363D01*
G01X39298Y20309D01*
G01X39349Y20205D01*
G01X39349Y20101D01*
G01X39298Y19997D01*
G01X39245Y19946D01*
G01X39090Y19895D01*
G01X38623Y19895D01*
G01X38986Y19895D02*
G01X39349Y19324D01*
G01X39796Y20413D02*
G01X40368Y20413D01*
G01X40055Y19997D01*
G01X40213Y19997D01*
G01X40317Y19946D01*
G01X40368Y19895D01*
G01X40421Y19738D01*
G01X40421Y19634D01*
G01X40368Y19479D01*
G01X40264Y19375D01*
G01X40109Y19324D01*
G01X39954Y19324D01*
G01X39796Y19375D01*
G01X39745Y19425D01*
G01X39692Y19530D01*
G01X19431Y20413D02*
G01X19431Y19324D01*
G01X19431Y19324D02*
G01X20053Y19324D01*
G01X20812Y20413D02*
G01X20396Y19324D01*
G01X20812Y20413D02*
G01X21229Y19324D01*
G01X20553Y19687D02*
G01X21071Y19687D01*
G01X21572Y20413D02*
G01X21986Y19895D01*
G01X21986Y19324D01*
G01X22402Y20413D02*
G01X21986Y19895D01*
G01X22745Y20413D02*
G01X22745Y19324D01*
G01X22745Y20413D02*
G01X23421Y20413D01*
G01X22745Y19895D02*
G01X23162Y19895D01*
G01X22745Y19324D02*
G01X23421Y19324D01*
G01X23764Y20413D02*
G01X23764Y19324D01*
G01X23764Y20413D02*
G01X24231Y20413D01*
G01X24386Y20363D01*
G01X24439Y20309D01*
G01X24490Y20205D01*
G01X24490Y20101D01*
G01X24439Y19997D01*
G01X24386Y19946D01*
G01X24231Y19895D01*
G01X23764Y19895D01*
G01X24127Y19895D02*
G01X24490Y19324D01*
G01X24886Y20154D02*
G01X24886Y20205D01*
G01X24937Y20309D01*
G01X24991Y20363D01*
G01X25095Y20413D01*
G01X25300Y20413D01*
G01X25405Y20363D01*
G01X25458Y20309D01*
G01X25509Y20205D01*
G01X25509Y20101D01*
G01X25458Y19997D01*
G01X25354Y19842D01*
G01X24833Y19324D01*
G01X25562Y19324D01*
G01X4699Y20286D02*
G01X4699Y19197D01*
G01X4699Y19197D02*
G01X5321Y19197D01*
G01X6080Y20286D02*
G01X5664Y19197D01*
G01X6080Y20286D02*
G01X6497Y19197D01*
G01X5821Y19560D02*
G01X6339Y19560D01*
G01X6840Y20286D02*
G01X7254Y19768D01*
G01X7254Y19197D01*
G01X7670Y20286D02*
G01X7254Y19768D01*
G01X8013Y20286D02*
G01X8013Y19197D01*
G01X8013Y20286D02*
G01X8689Y20286D01*
G01X8013Y19768D02*
G01X8430Y19768D01*
G01X8013Y19197D02*
G01X8689Y19197D01*
G01X9032Y20286D02*
G01X9032Y19197D01*
G01X9032Y20286D02*
G01X9499Y20286D01*
G01X9654Y20236D01*
G01X9707Y20182D01*
G01X9758Y20078D01*
G01X9758Y19974D01*
G01X9707Y19870D01*
G01X9654Y19819D01*
G01X9499Y19768D01*
G01X9032Y19768D01*
G01X9395Y19768D02*
G01X9758Y19197D01*
G01X10101Y20078D02*
G01X10205Y20132D01*
G01X10363Y20286D01*
G01X10363Y19197D01*
G01X3418Y10937D02*
G01X3469Y10833D01*
G01X3573Y10728D01*
G01X3677Y10675D01*
G01X3835Y10624D01*
G01X4094Y10624D01*
G01X4249Y10675D01*
G01X4353Y10728D01*
G01X4457Y10833D01*
G01X4508Y10937D01*
G01X4508Y11145D01*
G01X4457Y11247D01*
G01X4353Y11351D01*
G01X4249Y11404D01*
G01X4094Y11455D01*
G01X3835Y11455D01*
G01X3677Y11404D01*
G01X3573Y11351D01*
G01X3469Y11247D01*
G01X3418Y11145D01*
G01X3418Y10937D01*
G01X4302Y11092D02*
G01X4612Y11404D01*
G01X3627Y11798D02*
G01X3573Y11902D01*
G01X3418Y12059D01*
G01X4508Y12059D01*
G01X18531Y10937D02*
G01X18582Y10833D01*
G01X18686Y10728D01*
G01X18790Y10675D01*
G01X18948Y10624D01*
G01X19207Y10624D01*
G01X19362Y10675D01*
G01X19466Y10728D01*
G01X19570Y10833D01*
G01X19621Y10937D01*
G01X19621Y11145D01*
G01X19570Y11247D01*
G01X19466Y11351D01*
G01X19362Y11404D01*
G01X19207Y11455D01*
G01X18948Y11455D01*
G01X18790Y11404D01*
G01X18686Y11351D01*
G01X18582Y11247D01*
G01X18531Y11145D01*
G01X18531Y10937D01*
G01X19415Y11092D02*
G01X19725Y11404D01*
G01X18790Y11851D02*
G01X18740Y11851D01*
G01X18635Y11902D01*
G01X18582Y11955D01*
G01X18531Y12059D01*
G01X18531Y12265D01*
G01X18582Y12369D01*
G01X18635Y12423D01*
G01X18740Y12473D01*
G01X18844Y12473D01*
G01X18948Y12423D01*
G01X19103Y12319D01*
G01X19621Y11798D01*
G01X19621Y12527D01*
G01X33517Y10937D02*
G01X33568Y10833D01*
G01X33672Y10728D01*
G01X33776Y10675D01*
G01X33934Y10624D01*
G01X34193Y10624D01*
G01X34348Y10675D01*
G01X34452Y10728D01*
G01X34556Y10833D01*
G01X34607Y10937D01*
G01X34607Y11145D01*
G01X34556Y11247D01*
G01X34452Y11351D01*
G01X34348Y11404D01*
G01X34193Y11455D01*
G01X33934Y11455D01*
G01X33776Y11404D01*
G01X33672Y11351D01*
G01X33568Y11247D01*
G01X33517Y11145D01*
G01X33517Y10937D01*
G01X34401Y11092D02*
G01X34711Y11404D01*
G01X33517Y11902D02*
G01X33517Y12473D01*
G01X33934Y12161D01*
G01X33934Y12319D01*
G01X33985Y12423D01*
G01X34036Y12473D01*
G01X34193Y12527D01*
G01X34297Y12527D01*
G01X34452Y12473D01*
G01X34556Y12369D01*
G01X34607Y12214D01*
G01X34607Y12059D01*
G01X34556Y11902D01*
G01X34505Y11851D01*
G01X34401Y11798D01*
G01X48503Y10937D02*
G01X48554Y10833D01*
G01X48658Y10728D01*
G01X48762Y10675D01*
G01X48920Y10624D01*
G01X49179Y10624D01*
G01X49334Y10675D01*
G01X49438Y10728D01*
G01X49542Y10833D01*
G01X49593Y10937D01*
G01X49593Y11145D01*
G01X49542Y11247D01*
G01X49438Y11351D01*
G01X49334Y11404D01*
G01X49179Y11455D01*
G01X48920Y11455D01*
G01X48762Y11404D01*
G01X48658Y11351D01*
G01X48554Y11247D01*
G01X48503Y11145D01*
G01X48503Y10937D01*
G01X49387Y11092D02*
G01X49697Y11404D01*
G01X48503Y12319D02*
G01X49230Y11798D01*
G01X49230Y12578D01*
G01X48503Y12319D02*
G01X49593Y12319D01*
G01X86995Y7459D02*
G01X86995Y6370D01*
G01X86995Y7459D02*
G01X87462Y7459D01*
G01X87617Y7409D01*
G01X87670Y7355D01*
G01X87721Y7251D01*
G01X87721Y7147D01*
G01X87670Y7043D01*
G01X87617Y6992D01*
G01X87462Y6941D01*
G01X86995Y6941D01*
G01X87358Y6941D02*
G01X87721Y6370D01*
G01X88064Y7251D02*
G01X88168Y7305D01*
G01X88325Y7459D01*
G01X88325Y6370D01*
G01X86868Y9999D02*
G01X86868Y8910D01*
G01X86868Y9999D02*
G01X87335Y9999D01*
G01X87490Y9949D01*
G01X87543Y9895D01*
G01X87594Y9791D01*
G01X87594Y9687D01*
G01X87543Y9583D01*
G01X87490Y9532D01*
G01X87335Y9481D01*
G01X86868Y9481D01*
G01X87231Y9481D02*
G01X87594Y8910D01*
G01X87990Y9740D02*
G01X87990Y9791D01*
G01X88041Y9895D01*
G01X88094Y9949D01*
G01X88198Y9999D01*
G01X88404Y9999D01*
G01X88508Y9949D01*
G01X88562Y9895D01*
G01X88612Y9791D01*
G01X88612Y9687D01*
G01X88562Y9583D01*
G01X88458Y9428D01*
G01X87937Y8910D01*
G01X88666Y8910D01*
G01X86868Y12412D02*
G01X86868Y11323D01*
G01X86868Y12412D02*
G01X87335Y12412D01*
G01X87490Y12362D01*
G01X87543Y12308D01*
G01X87594Y12204D01*
G01X87594Y12100D01*
G01X87543Y11996D01*
G01X87490Y11945D01*
G01X87335Y11894D01*
G01X86868Y11894D01*
G01X87231Y11894D02*
G01X87594Y11323D01*
G01X88041Y12412D02*
G01X88612Y12412D01*
G01X88303Y11996D01*
G01X88458Y11996D01*
G01X88562Y11945D01*
G01X88612Y11894D01*
G01X88666Y11737D01*
G01X88666Y11633D01*
G01X88612Y11478D01*
G01X88508Y11374D01*
G01X88353Y11323D01*
G01X88198Y11323D01*
G01X88041Y11374D01*
G01X87990Y11424D01*
G01X87937Y11529D01*
G01X86868Y14825D02*
G01X86868Y13736D01*
G01X86868Y14825D02*
G01X87335Y14825D01*
G01X87490Y14775D01*
G01X87543Y14721D01*
G01X87594Y14617D01*
G01X87594Y14513D01*
G01X87543Y14409D01*
G01X87490Y14358D01*
G01X87335Y14307D01*
G01X86868Y14307D01*
G01X87231Y14307D02*
G01X87594Y13736D01*
G01X88458Y14825D02*
G01X87937Y14099D01*
G01X88717Y14099D01*
G01X88458Y14825D02*
G01X88458Y13736D01*
G01X61341Y40352D02*
G01X61341Y39263D01*
G01X61341Y40352D02*
G01X61808Y40352D01*
G01X61963Y40302D01*
G01X62016Y40248D01*
G01X62067Y40144D01*
G01X62067Y40040D01*
G01X62016Y39936D01*
G01X61963Y39885D01*
G01X61808Y39834D01*
G01X61341Y39834D01*
G01X61704Y39834D02*
G01X62067Y39263D01*
G01X63035Y40352D02*
G01X62514Y40352D01*
G01X62463Y39885D01*
G01X62514Y39936D01*
G01X62671Y39989D01*
G01X62826Y39989D01*
G01X62981Y39936D01*
G01X63085Y39834D01*
G01X63139Y39677D01*
G01X63139Y39573D01*
G01X63085Y39418D01*
G01X62981Y39314D01*
G01X62826Y39263D01*
G01X62671Y39263D01*
G01X62514Y39314D01*
G01X62463Y39364D01*
G01X62410Y39469D01*
G01X61468Y37812D02*
G01X61468Y36723D01*
G01X61468Y37812D02*
G01X61935Y37812D01*
G01X62090Y37762D01*
G01X62143Y37708D01*
G01X62194Y37604D01*
G01X62194Y37500D01*
G01X62143Y37396D01*
G01X62090Y37345D01*
G01X61935Y37294D01*
G01X61468Y37294D01*
G01X61831Y37294D02*
G01X62194Y36723D01*
G01X63162Y37658D02*
G01X63108Y37762D01*
G01X62953Y37812D01*
G01X62849Y37812D01*
G01X62694Y37762D01*
G01X62590Y37604D01*
G01X62537Y37345D01*
G01X62537Y37086D01*
G01X62590Y36878D01*
G01X62694Y36774D01*
G01X62849Y36723D01*
G01X62903Y36723D01*
G01X63058Y36774D01*
G01X63162Y36878D01*
G01X63212Y37033D01*
G01X63212Y37086D01*
G01X63162Y37241D01*
G01X63058Y37345D01*
G01X62903Y37396D01*
G01X62849Y37396D01*
G01X62694Y37345D01*
G01X62590Y37241D01*
G01X62537Y37086D01*
G01X61468Y35272D02*
G01X61468Y34183D01*
G01X61468Y35272D02*
G01X61935Y35272D01*
G01X62090Y35222D01*
G01X62143Y35168D01*
G01X62194Y35064D01*
G01X62194Y34960D01*
G01X62143Y34856D01*
G01X62090Y34805D01*
G01X61935Y34754D01*
G01X61468Y34754D01*
G01X61831Y34754D02*
G01X62194Y34183D01*
G01X63266Y35272D02*
G01X62745Y34183D01*
G01X62537Y35272D02*
G01X63266Y35272D01*
G01X61341Y32732D02*
G01X61341Y31643D01*
G01X61341Y32732D02*
G01X61808Y32732D01*
G01X61963Y32682D01*
G01X62016Y32628D01*
G01X62067Y32524D01*
G01X62067Y32420D01*
G01X62016Y32316D01*
G01X61963Y32265D01*
G01X61808Y32214D01*
G01X61341Y32214D01*
G01X61704Y32214D02*
G01X62067Y31643D01*
G01X62671Y32732D02*
G01X62514Y32682D01*
G01X62463Y32578D01*
G01X62463Y32473D01*
G01X62514Y32369D01*
G01X62618Y32316D01*
G01X62826Y32265D01*
G01X62981Y32214D01*
G01X63085Y32110D01*
G01X63139Y32006D01*
G01X63139Y31849D01*
G01X63085Y31744D01*
G01X63035Y31694D01*
G01X62877Y31643D01*
G01X62671Y31643D01*
G01X62514Y31694D01*
G01X62463Y31744D01*
G01X62410Y31849D01*
G01X62410Y32006D01*
G01X62463Y32110D01*
G01X62567Y32214D01*
G01X62722Y32265D01*
G01X62931Y32316D01*
G01X63035Y32369D01*
G01X63085Y32473D01*
G01X63085Y32578D01*
G01X63035Y32682D01*
G01X62877Y32732D01*
G01X62671Y32732D01*
G01X61341Y30192D02*
G01X61341Y29103D01*
G01X61341Y30192D02*
G01X61808Y30192D01*
G01X61963Y30142D01*
G01X62016Y30088D01*
G01X62067Y29984D01*
G01X62067Y29880D01*
G01X62016Y29776D01*
G01X61963Y29725D01*
G01X61808Y29674D01*
G01X61341Y29674D01*
G01X61704Y29674D02*
G01X62067Y29103D01*
G01X63085Y29829D02*
G01X63035Y29674D01*
G01X62931Y29570D01*
G01X62776Y29517D01*
G01X62722Y29517D01*
G01X62567Y29570D01*
G01X62463Y29674D01*
G01X62410Y29829D01*
G01X62410Y29880D01*
G01X62463Y30038D01*
G01X62567Y30142D01*
G01X62722Y30192D01*
G01X62776Y30192D01*
G01X62931Y30142D01*
G01X63035Y30038D01*
G01X63085Y29829D01*
G01X63085Y29570D01*
G01X63035Y29309D01*
G01X62931Y29154D01*
G01X62776Y29103D01*
G01X62671Y29103D01*
G01X62514Y29154D01*
G01X62463Y29258D01*
G01X61087Y27652D02*
G01X61087Y26563D01*
G01X61087Y27652D02*
G01X61554Y27652D01*
G01X61709Y27602D01*
G01X61762Y27548D01*
G01X61813Y27444D01*
G01X61813Y27340D01*
G01X61762Y27236D01*
G01X61709Y27185D01*
G01X61554Y27134D01*
G01X61087Y27134D01*
G01X61450Y27134D02*
G01X61813Y26563D01*
G01X62156Y27444D02*
G01X62260Y27498D01*
G01X62417Y27652D01*
G01X62417Y26563D01*
G01X63070Y27652D02*
G01X62915Y27602D01*
G01X62811Y27444D01*
G01X62760Y27185D01*
G01X62760Y27030D01*
G01X62811Y26769D01*
G01X62915Y26614D01*
G01X63070Y26563D01*
G01X63174Y26563D01*
G01X63332Y26614D01*
G01X63436Y26769D01*
G01X63487Y27030D01*
G01X63487Y27185D01*
G01X63436Y27444D01*
G01X63332Y27602D01*
G01X63174Y27652D01*
G01X63070Y27652D01*
G01X61214Y25112D02*
G01X61214Y24023D01*
G01X61214Y25112D02*
G01X61681Y25112D01*
G01X61836Y25062D01*
G01X61889Y25008D01*
G01X61940Y24904D01*
G01X61940Y24800D01*
G01X61889Y24696D01*
G01X61836Y24645D01*
G01X61681Y24594D01*
G01X61214Y24594D01*
G01X61577Y24594D02*
G01X61940Y24023D01*
G01X62283Y24904D02*
G01X62387Y24958D01*
G01X62544Y25112D01*
G01X62544Y24023D01*
G01X62887Y24904D02*
G01X62992Y24958D01*
G01X63146Y25112D01*
G01X63146Y24023D01*
G01X61087Y22572D02*
G01X61087Y21483D01*
G01X61087Y22572D02*
G01X61554Y22572D01*
G01X61709Y22522D01*
G01X61762Y22468D01*
G01X61813Y22364D01*
G01X61813Y22260D01*
G01X61762Y22156D01*
G01X61709Y22105D01*
G01X61554Y22054D01*
G01X61087Y22054D01*
G01X61450Y22054D02*
G01X61813Y21483D01*
G01X62156Y22364D02*
G01X62260Y22418D01*
G01X62417Y22572D01*
G01X62417Y21483D01*
G01X62811Y22313D02*
G01X62811Y22364D01*
G01X62865Y22468D01*
G01X62915Y22522D01*
G01X63019Y22572D01*
G01X63228Y22572D01*
G01X63332Y22522D01*
G01X63383Y22468D01*
G01X63436Y22364D01*
G01X63436Y22260D01*
G01X63383Y22156D01*
G01X63279Y22001D01*
G01X62760Y21483D01*
G01X63487Y21483D01*
G01X61087Y67530D02*
G01X61087Y66441D01*
G01X61087Y67530D02*
G01X61554Y67530D01*
G01X61709Y67480D01*
G01X61762Y67426D01*
G01X61813Y67322D01*
G01X61813Y67218D01*
G01X61762Y67114D01*
G01X61709Y67063D01*
G01X61554Y67012D01*
G01X61087Y67012D01*
G01X61450Y67012D02*
G01X61813Y66441D01*
G01X62156Y67322D02*
G01X62260Y67376D01*
G01X62417Y67530D01*
G01X62417Y66441D01*
G01X62865Y67530D02*
G01X63436Y67530D01*
G01X63124Y67114D01*
G01X63279Y67114D01*
G01X63383Y67063D01*
G01X63436Y67012D01*
G01X63487Y66855D01*
G01X63487Y66751D01*
G01X63436Y66596D01*
G01X63332Y66492D01*
G01X63174Y66441D01*
G01X63019Y66441D01*
G01X62865Y66492D01*
G01X62811Y66542D01*
G01X62760Y66647D01*
G01X61087Y65117D02*
G01X61087Y64028D01*
G01X61087Y65117D02*
G01X61554Y65117D01*
G01X61709Y65067D01*
G01X61762Y65013D01*
G01X61813Y64909D01*
G01X61813Y64805D01*
G01X61762Y64701D01*
G01X61709Y64650D01*
G01X61554Y64599D01*
G01X61087Y64599D01*
G01X61450Y64599D02*
G01X61813Y64028D01*
G01X62156Y64909D02*
G01X62260Y64963D01*
G01X62417Y65117D01*
G01X62417Y64028D01*
G01X63279Y65117D02*
G01X62760Y64391D01*
G01X63538Y64391D01*
G01X63279Y65117D02*
G01X63279Y64028D01*
G01X61087Y62577D02*
G01X61087Y61488D01*
G01X61087Y62577D02*
G01X61554Y62577D01*
G01X61709Y62527D01*
G01X61762Y62473D01*
G01X61813Y62369D01*
G01X61813Y62265D01*
G01X61762Y62161D01*
G01X61709Y62110D01*
G01X61554Y62059D01*
G01X61087Y62059D01*
G01X61450Y62059D02*
G01X61813Y61488D01*
G01X62156Y62369D02*
G01X62260Y62423D01*
G01X62417Y62577D01*
G01X62417Y61488D01*
G01X63383Y62577D02*
G01X62865Y62577D01*
G01X62811Y62110D01*
G01X62865Y62161D01*
G01X63019Y62214D01*
G01X63174Y62214D01*
G01X63332Y62161D01*
G01X63436Y62059D01*
G01X63487Y61902D01*
G01X63487Y61798D01*
G01X63436Y61643D01*
G01X63332Y61539D01*
G01X63174Y61488D01*
G01X63019Y61488D01*
G01X62865Y61539D01*
G01X62811Y61589D01*
G01X62760Y61694D01*
G01X61087Y60037D02*
G01X61087Y58948D01*
G01X61087Y60037D02*
G01X61554Y60037D01*
G01X61709Y59987D01*
G01X61762Y59933D01*
G01X61813Y59829D01*
G01X61813Y59725D01*
G01X61762Y59621D01*
G01X61709Y59570D01*
G01X61554Y59519D01*
G01X61087Y59519D01*
G01X61450Y59519D02*
G01X61813Y58948D01*
G01X62156Y59829D02*
G01X62260Y59883D01*
G01X62417Y60037D01*
G01X62417Y58948D01*
G01X63383Y59883D02*
G01X63332Y59987D01*
G01X63174Y60037D01*
G01X63070Y60037D01*
G01X62915Y59987D01*
G01X62811Y59829D01*
G01X62760Y59570D01*
G01X62760Y59311D01*
G01X62811Y59103D01*
G01X62915Y58999D01*
G01X63070Y58948D01*
G01X63124Y58948D01*
G01X63279Y58999D01*
G01X63383Y59103D01*
G01X63436Y59258D01*
G01X63436Y59311D01*
G01X63383Y59466D01*
G01X63279Y59570D01*
G01X63124Y59621D01*
G01X63070Y59621D01*
G01X62915Y59570D01*
G01X62811Y59466D01*
G01X62760Y59311D01*
G01X61087Y57497D02*
G01X61087Y56408D01*
G01X61087Y57497D02*
G01X61554Y57497D01*
G01X61709Y57447D01*
G01X61762Y57393D01*
G01X61813Y57289D01*
G01X61813Y57185D01*
G01X61762Y57081D01*
G01X61709Y57030D01*
G01X61554Y56979D01*
G01X61087Y56979D01*
G01X61450Y56979D02*
G01X61813Y56408D01*
G01X62156Y57289D02*
G01X62260Y57343D01*
G01X62417Y57497D01*
G01X62417Y56408D01*
G01X63487Y57497D02*
G01X62966Y56408D01*
G01X62760Y57497D02*
G01X63487Y57497D01*
G01X61087Y54957D02*
G01X61087Y53868D01*
G01X61087Y54957D02*
G01X61554Y54957D01*
G01X61709Y54907D01*
G01X61762Y54853D01*
G01X61813Y54749D01*
G01X61813Y54645D01*
G01X61762Y54541D01*
G01X61709Y54490D01*
G01X61554Y54439D01*
G01X61087Y54439D01*
G01X61450Y54439D02*
G01X61813Y53868D01*
G01X62156Y54749D02*
G01X62260Y54803D01*
G01X62417Y54957D01*
G01X62417Y53868D01*
G01X63019Y54957D02*
G01X62865Y54907D01*
G01X62811Y54803D01*
G01X62811Y54698D01*
G01X62865Y54594D01*
G01X62966Y54541D01*
G01X63174Y54490D01*
G01X63332Y54439D01*
G01X63436Y54335D01*
G01X63487Y54231D01*
G01X63487Y54074D01*
G01X63436Y53969D01*
G01X63383Y53919D01*
G01X63228Y53868D01*
G01X63019Y53868D01*
G01X62865Y53919D01*
G01X62811Y53969D01*
G01X62760Y54074D01*
G01X62760Y54231D01*
G01X62811Y54335D01*
G01X62915Y54439D01*
G01X63070Y54490D01*
G01X63279Y54541D01*
G01X63383Y54594D01*
G01X63436Y54698D01*
G01X63436Y54803D01*
G01X63383Y54907D01*
G01X63228Y54957D01*
G01X63019Y54957D01*
G01X61087Y52417D02*
G01X61087Y51328D01*
G01X61087Y52417D02*
G01X61554Y52417D01*
G01X61709Y52367D01*
G01X61762Y52313D01*
G01X61813Y52209D01*
G01X61813Y52105D01*
G01X61762Y52001D01*
G01X61709Y51950D01*
G01X61554Y51899D01*
G01X61087Y51899D01*
G01X61450Y51899D02*
G01X61813Y51328D01*
G01X62156Y52209D02*
G01X62260Y52263D01*
G01X62417Y52417D01*
G01X62417Y51328D01*
G01X63436Y52054D02*
G01X63383Y51899D01*
G01X63279Y51795D01*
G01X63124Y51742D01*
G01X63070Y51742D01*
G01X62915Y51795D01*
G01X62811Y51899D01*
G01X62760Y52054D01*
G01X62760Y52105D01*
G01X62811Y52263D01*
G01X62915Y52367D01*
G01X63070Y52417D01*
G01X63124Y52417D01*
G01X63279Y52367D01*
G01X63383Y52263D01*
G01X63436Y52054D01*
G01X63436Y51795D01*
G01X63383Y51534D01*
G01X63279Y51379D01*
G01X63124Y51328D01*
G01X63019Y51328D01*
G01X62865Y51379D01*
G01X62811Y51483D01*
G01X60833Y49877D02*
G01X60833Y48788D01*
G01X60833Y49877D02*
G01X61300Y49877D01*
G01X61455Y49827D01*
G01X61508Y49773D01*
G01X61559Y49669D01*
G01X61559Y49565D01*
G01X61508Y49461D01*
G01X61455Y49410D01*
G01X61300Y49359D01*
G01X60833Y49359D01*
G01X61196Y49359D02*
G01X61559Y48788D01*
G01X61955Y49618D02*
G01X61955Y49669D01*
G01X62006Y49773D01*
G01X62059Y49827D01*
G01X62163Y49877D01*
G01X62369Y49877D01*
G01X62473Y49827D01*
G01X62527Y49773D01*
G01X62577Y49669D01*
G01X62577Y49565D01*
G01X62527Y49461D01*
G01X62423Y49306D01*
G01X61902Y48788D01*
G01X62631Y48788D01*
G01X63284Y49877D02*
G01X63129Y49827D01*
G01X63025Y49669D01*
G01X62974Y49410D01*
G01X62974Y49255D01*
G01X63025Y48994D01*
G01X63129Y48839D01*
G01X63284Y48788D01*
G01X63388Y48788D01*
G01X63545Y48839D01*
G01X63649Y48994D01*
G01X63700Y49255D01*
G01X63700Y49410D01*
G01X63649Y49669D01*
G01X63545Y49827D01*
G01X63388Y49877D01*
G01X63284Y49877D01*
G54D10*
G75*
G01X73517Y38405D02*
G02X71517Y38355I-1000J-25D01*
G01*
G75*
G01X73390Y65710D02*
G02X71390Y65660I-1000J-25D01*
G01*
G75*
G01X8867Y12860D02*
G03X8867Y8898I-1498J-1981D01*
G01*
G75*
G01X23980Y12860D02*
G03X23980Y8898I-1498J-1981D01*
G01*
G75*
G01X38966Y12860D02*
G03X38966Y8898I-1498J-1981D01*
G01*
G75*
G01X53952Y12860D02*
G03X53952Y8898I-1498J-1981D01*
G01*
G54D22*
G75*
G01X163972Y75395D02*
G02X164973Y74394I0J-1001D01*
G01*
G54D10*
G75*
G01X37973Y85428D02*
G03X37973Y85428I-508J0D01*
G01*
G75*
G01X37846Y81872D02*
G03X37846Y81872I-508J0D01*
G01*
G75*
G01X41783Y85428D02*
G03X41783Y85428I-508J0D01*
G01*
G75*
G01X41656Y81872D02*
G03X41656Y81872I-508J0D01*
G01*
G75*
G01X40513Y83650D02*
G03X40513Y83650I-1143J0D01*
G01*
G75*
G01X40871Y83650D02*
G03X40871Y83650I-1501J0D01*
G01*
G75*
G01X25273Y85301D02*
G03X25273Y85301I-508J0D01*
G01*
G75*
G01X25146Y81745D02*
G03X25146Y81745I-508J0D01*
G01*
G75*
G01X29083Y85301D02*
G03X29083Y85301I-508J0D01*
G01*
G75*
G01X28956Y81745D02*
G03X28956Y81745I-508J0D01*
G01*
G75*
G01X27813Y83523D02*
G03X27813Y83523I-1143J0D01*
G01*
G75*
G01X28171Y83523D02*
G03X28171Y83523I-1501J0D01*
G01*
G75*
G01X12573Y85301D02*
G03X12573Y85301I-508J0D01*
G01*
G75*
G01X12446Y81745D02*
G03X12446Y81745I-508J0D01*
G01*
G75*
G01X16383Y85301D02*
G03X16383Y85301I-508J0D01*
G01*
G75*
G01X16256Y81745D02*
G03X16256Y81745I-508J0D01*
G01*
G75*
G01X15113Y83523D02*
G03X15113Y83523I-1143J0D01*
G01*
G75*
G01X15471Y83523D02*
G03X15471Y83523I-1501J0D01*
G01*
G75*
G01X70617Y37255D02*
G03X70617Y37255I-300J0D01*
G01*
G75*
G01X70490Y64560D02*
G03X70490Y64560I-300J0D01*
G01*
M00*
M02*
